<svg xmlns="http://www.w3.org/2000/svg" width="96" height="100" viewBox="0 0 96 100" fill="none"><path d="M12.4207 51.3384C12.0706 49.4551 11.1808 47.5572 10.5536 45.7322C10.4807 45.5278 10.1452 45.6154 10.2181 45.8198C10.8453 47.6593 11.2975 49.7033 12.1873 51.4406C12.2602 51.572 12.4352 51.4698 12.4207 51.3384Z" fill="#194A33"></path><path d="M12.7561 49.9077C12.7707 49.5281 12.7561 49.1485 12.7416 48.7689C12.7416 48.6959 12.6103 48.6667 12.5957 48.7543C12.5811 48.8565 12.5665 48.9587 12.5519 49.0609C12.2748 47.9513 12.0122 46.8418 11.7351 45.7322C11.6913 45.5278 11.3996 45.6008 11.4434 45.8052C11.7789 47.1922 12.1144 48.5645 12.4498 49.9515C12.4936 50.112 12.7416 50.0682 12.7561 49.9077Z" fill="#194A33"></path><path d="M33.2352 21.2053C34.1104 23.8332 34.8981 26.6508 36.2254 29.0889C36.2692 29.1619 36.3713 29.1181 36.3567 29.0305C35.7441 26.3297 34.4751 23.7018 33.4103 21.1615C33.3665 21.0447 33.1915 21.0885 33.2352 21.2053Z" fill="#194A33"></path><path d="M95.5915 56.711C94.8768 56.8862 94.1766 57.0905 93.4911 57.2949C93.4765 57.2949 93.4619 57.2803 93.4327 57.2803C84.9435 58.8133 77.1545 56.0686 68.8841 54.5503C61.8389 53.2655 54.6916 52.9589 47.6319 54.2729C38.8072 55.908 27.1236 62.7113 25.1253 72.3469C24.0605 72.9163 23.0395 73.5294 22.0184 74.1718C22.4122 73.617 22.7331 73.0039 22.9374 72.3907C22.9374 72.3761 22.9374 72.3615 22.9374 72.3469C24.819 69.719 26.4089 66.8429 28.0717 64.0983C29.1073 62.3901 30.493 60.4922 31.5724 58.4921C32.258 57.9519 32.856 57.2949 33.4686 56.6672C34.1834 55.9372 34.9564 55.2364 35.5545 54.4043C35.569 54.3751 35.5545 54.3459 35.5399 54.3167C36.6193 53.4261 37.757 52.6231 38.9676 51.8786C44.7146 51.5866 50.7242 49.9807 55.6251 47.309C58.9362 45.4986 61.8972 43.1919 65.3104 41.4984C65.8064 41.2502 66.3023 41.0312 66.7982 40.8122C67.688 40.4765 68.5923 40.1553 69.5259 39.8779C69.6134 39.8487 69.6134 39.7757 69.5842 39.7173C72.6327 38.6515 75.7834 37.9362 78.9777 37.3668C79.2841 37.3084 79.2257 36.7828 78.9048 36.812C78.8173 36.8266 78.7298 36.8412 78.6423 36.8412C78.6569 36.7682 78.6277 36.6806 78.5402 36.6514C77.2128 36.2572 75.8563 35.9944 74.4706 35.7755C74.456 35.7609 74.4414 35.7463 74.4268 35.7317C71.1012 34.4323 67.1629 33.5418 63.2684 33.4834C63.4434 33.279 63.1662 33.0162 62.9475 33.1914C62.8308 33.2936 62.7141 33.3812 62.5974 33.4834C59.6218 33.5271 56.7045 34.0673 54.1665 35.3375C50.9284 36.958 48.3904 39.2939 45.8232 41.8196C43.5623 44.0533 41.2577 46.2578 39.026 48.5499C39.4344 47.8929 39.7991 47.2214 40.1637 46.5936C41.2723 44.7249 42.3517 42.7102 42.9205 40.5932C42.9497 40.4619 42.8768 40.3451 42.7747 40.3013C44.4083 37.7902 46.1587 35.3521 47.9965 32.8848C52.9121 30.3591 57.1859 26.1691 60.4678 21.8622C62.4953 19.1906 63.8956 16.1393 64.8291 12.9274C66.0252 8.8104 65.7772 4.69338 68.4319 1.07273C68.534 0.941338 68.4027 0.707748 68.2423 0.736946C68.111 0.751546 67.9943 0.751546 67.9068 0.766145C67.9068 0.736946 67.9214 0.722347 67.9214 0.707748C67.7172 0.663949 67.5713 0.722347 67.44 0.809943C67.2066 0.839142 67.1337 0.926738 66.8274 1.24792C66.7982 1.24792 66.7691 1.24792 66.7253 1.26252C63.633 2.98525 60.7741 5.18976 57.8714 7.20447C56.019 8.48922 53.8894 9.80316 52.5475 11.6573C50.1991 14.9129 49.2655 18.9424 49.1489 22.9718C48.8717 24.3733 48.5508 25.7311 48.0986 27.1034C47.3256 29.4393 45.9545 31.4102 44.9626 33.6293C41.3452 38.3449 38.0633 43.6737 35.4815 48.7105C35.4232 48.8273 35.5836 48.9733 35.6857 48.8565C35.7878 48.7251 35.8899 48.5791 35.9921 48.4477C35.8316 48.7543 35.6712 49.0463 35.4961 49.3529C35.219 49.8493 34.9273 50.331 34.6501 50.8274C35.5107 48.4331 36.3421 45.9512 37.0568 43.4693C39.4344 37.9508 42.1766 32.4322 42.3517 26.4611C42.4246 23.5996 41.9287 20.8403 41.2285 18.1102C41.2285 18.0956 41.2431 18.081 41.2431 18.0518C41.2577 17.9934 41.2285 17.9496 41.1848 17.935C39.624 12.2267 37.2902 6.5767 37.7862 0.444959C37.8153 0.00697745 37.1444 -0.182814 36.9547 0.225968C34.2417 6.15332 32.7539 12.3435 32.3747 18.8548C32.2871 20.3439 32.3455 21.7892 32.4476 23.22C32.4768 25.3807 32.8706 27.5414 33.2498 29.7021C33.7312 32.4176 34.1834 35.0747 34.5043 37.761C34.4751 38.5055 34.4751 39.2501 34.4751 39.9947C34.4751 41.075 34.4313 42.1554 34.4897 43.2357C33.0748 47.4404 31.835 51.6158 29.8221 55.6452C29.5595 56.1562 29.2678 56.6526 28.9907 57.1489C28.6114 57.7621 28.2322 58.3753 27.8383 58.9593C26.5985 60.7988 25.1253 62.6237 24.0459 64.5946C23.8125 64.9012 23.5937 65.2078 23.4041 65.5436C23.3895 65.31 23.3749 65.091 23.3458 64.8574C23.3166 64.2442 23.2583 63.6457 23.1999 63.0471C30.2451 55.616 31.1494 44.9731 27.7362 35.5127C25.9421 30.5197 22.7915 26.2713 19.4512 22.2126C14.6669 16.3875 11.0641 10.4309 9.24086 3.04365C9.18251 2.78086 8.83244 2.72246 8.68658 2.94145C8.65741 2.94145 8.62824 2.94145 8.61365 2.95605C8.46779 3.18964 8.29275 3.42323 8.14689 3.65682C8.14689 3.45243 8.14689 3.24804 8.16148 3.04365C8.17606 2.82466 7.82599 2.82466 7.81141 3.04365C7.78223 3.75902 7.78223 4.47439 7.79682 5.18976C7.65096 5.94892 7.63637 6.70809 7.76765 7.49646C7.79682 13.1318 8.672 18.7672 8.7741 24.4171C8.89079 30.6365 8.38027 36.812 7.72389 42.9875C7.2863 47.1338 7.62178 51.3676 10.2911 54.7692C13.0187 58.2439 16.6944 60.9594 20.3556 63.3975C20.3702 63.4559 20.3702 63.4997 20.3848 63.5581C20.341 64.0252 20.3556 64.4924 20.3848 65.018C20.4139 65.529 20.4285 66.04 20.4869 66.5363C19.8742 72.1279 14.9878 77.6173 12.056 81.9533C10.2181 84.6688 8.3511 87.3551 6.46947 90.0267C4.36905 93.005 1.5539 95.8957 0.0806908 99.2243C0.00775949 99.3995 0.0661045 99.5455 0.168208 99.6477C0.109863 99.7207 0.0661045 99.7937 0.00775949 99.8813C-0.021413 99.9397 0.036932 100.013 0.095277 99.9981C5.06919 98.655 7.30089 92.932 10.0577 88.9464C12.0998 85.9681 14.0397 82.8876 16.5632 80.289C18.2843 78.5224 20.4577 77.6611 22.631 76.7705C26.2338 76.5953 29.4137 77.7633 32.8706 78.9458C36.24 80.0992 39.6094 80.3766 43.1393 80.289C50.447 80.0992 57.959 78.9896 65.0916 77.3691C77.3587 74.566 89.2173 68.1715 95.9416 57.1927C96.1166 56.9445 95.8686 56.638 95.5915 56.711ZM54.7062 54.5941C55.8294 54.5503 56.9379 54.5503 58.0611 54.5795C57.7985 54.8714 57.5505 55.1926 57.3317 55.5284C56.6608 56.0102 55.9898 56.492 55.348 57.0175C54.2249 57.3825 53.1309 57.9227 52.0953 58.5943C52.2557 58.3607 51.8765 58.1417 51.716 58.3753C51.4972 58.6965 51.2785 59.0323 51.0597 59.3535C49.0759 60.8864 47.4277 62.8719 46.3775 64.9158C44.1458 65.383 41.8849 65.9232 39.6532 66.5655C39.4052 66.332 39.1719 66.113 38.9239 65.8794C38.8947 65.8502 38.8655 65.8502 38.8364 65.8502C38.8801 65.8064 38.9093 65.748 38.9531 65.7042C38.9531 65.7042 38.9676 65.7042 38.9676 65.6896C38.9822 65.675 38.9822 65.6604 38.9968 65.6458C39.3615 65.1786 39.7553 64.726 40.12 64.2734C40.2075 64.1566 40.1491 64.0399 40.047 63.9961C40.6597 63.3683 41.2869 62.7551 41.9141 62.1565C41.0097 63.2953 40.2367 64.5362 39.7407 65.8794C39.7115 65.967 39.8428 66.0108 39.8866 65.9378C41.4473 63.7041 42.8913 61.558 44.7438 59.6746C45.6336 58.9447 46.5379 58.2147 47.486 57.4847C47.5298 57.4555 47.486 57.3971 47.4423 57.4117C46.0566 58.0249 44.7292 58.8863 43.4894 59.8644C42.9935 60.1564 42.4975 60.463 42.0453 60.828C43.3144 59.6016 44.7 58.5213 46.3775 57.7329C46.4942 57.6745 46.4066 57.4993 46.2899 57.5285C43.431 58.3607 41.3452 60.3608 39.4052 62.5361C37.8883 64.2296 36.4296 65.9378 34.9127 67.5875C34.8981 67.3977 34.8543 67.2079 34.8106 67.0327C35.0002 66.6677 35.2044 66.3028 35.4524 65.967C35.4815 65.9378 35.4232 65.894 35.394 65.9232C35.146 66.186 34.9564 66.4925 34.7376 66.7845C34.6647 66.5947 34.5918 66.4049 34.5043 66.2444C34.4751 66.186 34.4167 66.1568 34.373 66.1422C34.3876 66.0838 34.3876 66.04 34.4021 65.9816C34.4459 65.8356 34.3438 65.748 34.2417 65.7188C34.373 65.4998 34.4751 65.2662 34.6209 65.0618C34.6939 64.9596 34.5334 64.8282 34.4459 64.9158C33.527 65.9524 32.8706 67.1495 32.5059 68.4927C32.4476 68.6824 32.681 68.8868 32.856 68.7701C33.2061 68.5365 33.4686 68.2153 33.6874 67.8795C33.6874 68.0839 33.702 68.2883 33.7312 68.4781C33.1186 68.6971 32.5205 68.9452 31.9079 69.1788C32.3017 68.1861 33.4832 65.6166 33.6291 65.2516C33.6728 65.1348 33.4832 65.0618 33.4249 65.164C32.9435 65.9816 32.5059 66.8283 32.0975 67.6751C31.8933 68.0839 31.3682 68.8284 31.3536 69.3978C30.9744 69.5584 30.5806 69.719 30.2013 69.8942C30.493 69.208 31.1057 68.2737 31.2515 67.9817C31.6891 67.0911 32.1267 66.2006 32.5789 65.31C32.681 65.091 32.3601 64.9012 32.2434 65.1202C31.6599 66.259 31.0911 67.3977 30.5222 68.5511C30.2888 69.0182 29.8804 69.573 29.72 70.1132C29.5303 70.2008 29.3407 70.2738 29.1511 70.3614C29.647 69.3394 29.895 68.2153 30.4055 67.1933C30.989 65.9962 31.7475 64.8866 32.5643 63.8501C32.6664 63.7333 32.5059 63.5581 32.3892 63.6749C31.4995 64.58 30.5368 65.7918 29.8367 67.0911C30.3618 65.9378 30.9598 64.799 31.6308 63.6749C31.8204 63.4705 32.01 63.2661 32.2142 63.0617C32.1559 63.1493 32.0829 63.2369 32.0392 63.3391C32.01 63.3829 32.0392 63.4267 32.0683 63.4559C31.9079 63.6603 31.7329 63.8355 31.6016 64.0545C31.5141 64.2004 31.7183 64.361 31.835 64.2296C32.8268 63.1055 33.7749 62.0689 34.9127 61.193C34.2125 61.8353 33.5853 62.5361 33.1186 63.3099C33.0748 63.3975 33.1769 63.4705 33.2498 63.4121C34.1542 62.5507 34.9127 61.5872 35.8608 60.755C36.9985 59.7622 38.2821 58.9447 39.6094 58.2293C39.6532 58.2001 39.6094 58.1417 39.5803 58.1709C38.3842 58.7257 37.1006 59.4556 35.9483 60.3316C35.0294 60.828 34.125 61.4266 33.3082 62.1419C33.4395 61.9959 33.5707 61.8499 33.702 61.7186C34.3876 61.1492 35.1023 60.5798 35.8899 60.0542C41.4473 56.273 48.1278 54.886 54.7062 54.5941ZM56.7629 56.711C56.7337 56.6818 56.7045 56.6526 56.6754 56.6672C56.3691 56.7256 56.0773 56.8278 55.771 56.9154C56.2232 56.5796 56.6754 56.2438 57.1129 55.8934C56.9671 56.1562 56.8504 56.419 56.7629 56.711ZM50.3303 64.1128C50.695 63.7041 50.943 63.2369 51.2201 62.7551C51.0159 63.1931 50.8263 63.6457 50.695 64.1274C50.3303 64.1858 49.9803 64.2442 49.6156 64.3026C49.8198 64.0836 50.0094 63.8793 50.1845 63.6311C50.1553 63.7625 50.1115 63.8793 50.097 64.0107C50.0824 64.142 50.2428 64.2004 50.3303 64.1128ZM47.3256 64.726C47.9236 64.2588 48.3758 63.6165 48.828 62.9741C48.8425 63.0471 48.9301 63.0909 48.9884 63.0471C49.0467 63.0033 49.0905 62.9449 49.1343 62.9011C49.0613 63.1493 49.003 63.3975 48.9884 63.6457C48.9738 63.7479 49.1197 63.7625 49.1634 63.6895C49.674 62.9887 49.9657 62.0543 50.4033 61.2806C50.6804 60.7842 50.9867 60.317 51.3368 59.8644C51.8619 59.4702 52.387 59.1199 52.9413 58.7987C51.3076 60.4922 49.9073 62.3755 48.7696 64.4486C48.2883 64.5508 47.8069 64.6384 47.3256 64.726ZM47.136 64.7698C46.9901 64.799 46.8588 64.8282 46.7129 64.8574C47.2964 64.0398 47.909 63.2515 48.58 62.4923C48.0257 63.1639 47.4277 63.8647 47.0922 64.653C47.0776 64.6968 47.1068 64.7406 47.136 64.7698ZM33.7166 67.4999C33.5707 67.6897 33.4103 67.8503 33.2207 67.9963C33.3957 67.4561 33.5999 66.9451 33.8625 66.4342C33.7749 66.7845 33.7312 67.1349 33.7166 67.4999ZM34.2855 66.7553C34.3438 66.9013 34.4021 67.0619 34.4459 67.2225C34.3438 67.3831 34.2855 67.5437 34.1979 67.7043C34.1979 67.3831 34.2417 67.0765 34.2855 66.7553ZM34.3292 68.2591C34.3876 68.0693 34.4605 67.8941 34.5334 67.7043C34.548 67.8065 34.5626 67.9087 34.5626 68.0109C34.4897 68.0839 34.4021 68.1715 34.3292 68.2591ZM37.4799 66.2882C37.334 66.4925 37.1881 66.6969 37.0568 66.9159C36.9839 67.0473 37.0714 67.1787 37.1881 67.2079C37.1735 67.2371 37.1444 67.2809 37.1298 67.3101C37.086 67.3247 37.0277 67.3393 36.9839 67.3539C36.8672 67.2371 36.7505 67.1349 36.6484 67.0181C36.6193 66.9889 36.5755 66.9889 36.5463 67.0181C36.8235 66.7115 37.1006 66.405 37.3777 66.0984C37.3777 66.113 37.3632 66.1422 37.3632 66.1568C37.3632 66.2444 37.4069 66.2882 37.4799 66.2882ZM36.8089 67.4269C36.5026 67.5291 36.1963 67.6167 35.9045 67.7189C36.1233 67.4999 36.3421 67.2663 36.5609 67.0327C36.5463 67.0619 36.5317 67.1057 36.5609 67.1349C36.6338 67.2371 36.7214 67.3393 36.8089 67.4269ZM38.2383 66.9451C38.18 66.9013 38.1216 66.9013 38.0633 66.9305C38.2092 66.7115 38.355 66.4925 38.5009 66.2882C38.5738 66.186 38.6613 66.0838 38.7343 65.9962C38.7343 66.0108 38.7343 66.04 38.7634 66.0546C38.9676 66.2444 39.1719 66.4488 39.3761 66.6531C39.0114 66.7553 38.6468 66.8575 38.2821 66.9743C38.2529 66.9597 38.2383 66.9451 38.2383 66.9451ZM33.6728 74.8872C33.6582 74.8726 33.6582 74.8872 33.6728 74.8872C33.702 74.8872 33.7312 74.9018 33.7749 74.931C33.7312 74.9164 33.702 74.9018 33.6728 74.8872ZM32.6956 74.639C32.6226 74.5368 32.5497 74.4492 32.4622 74.347C32.681 74.493 32.8998 74.6098 33.1186 74.7412C32.9873 74.712 32.8414 74.6682 32.6956 74.639ZM28.2905 70.7702C28.5822 70.0548 28.8885 69.3394 29.1803 68.6386C28.9906 69.2372 28.874 69.8358 28.8594 70.4344C28.8594 70.4636 28.8885 70.4636 28.9031 70.4782C28.6989 70.5804 28.4947 70.6826 28.2905 70.7702ZM29.2386 71.8651C29.6324 72.1717 30.0117 72.4783 30.4055 72.7995C29.895 72.5075 29.3699 72.2593 28.8594 72.0403C28.9907 71.9819 29.1219 71.9235 29.2386 71.8651ZM29.5887 66.0984C28.7573 67.6167 28.1738 69.2664 27.9988 70.9016C27.3278 71.2227 26.6714 71.5439 26.0151 71.8797C27.1528 69.792 28.2759 67.8649 29.5887 66.0984ZM27.532 72.8579C29.1511 73.8944 30.741 75.004 32.4184 75.9529C31.9225 75.7924 31.412 75.6464 30.916 75.4566C30.9014 75.4566 30.9014 75.4712 30.9014 75.4712C29.6033 74.6098 28.2467 73.8068 26.8902 73.0477C27.0944 72.9455 27.2841 72.8433 27.4883 72.7557C27.4737 72.7849 27.4737 72.8287 27.532 72.8579ZM26.759 75.5004C26.511 75.3544 26.263 75.223 26.0151 75.077C26.0442 74.9164 25.9567 74.7266 25.7671 74.7558C25.665 74.7704 25.5775 74.7996 25.4899 74.8142C25.1545 74.639 24.819 74.4638 24.4835 74.2886C24.7606 74.1426 25.0378 73.9966 25.3003 73.8506C26.6277 74.639 27.9988 75.3982 29.3845 76.1135C28.5093 75.8653 27.6341 75.6464 26.759 75.5004ZM21.3329 75.9967C21.3183 75.9967 21.3183 75.9967 21.3037 76.0113C22.281 75.4712 23.2583 74.9456 24.2209 74.42C24.4981 74.5806 24.7898 74.7266 25.0669 74.8872C23.7688 75.1062 22.5144 75.4858 21.3329 75.9967ZM9.25545 47.236C9.24086 47.2068 9.22627 47.2068 9.1971 47.2068C9.18251 47.017 9.15334 46.8272 9.13876 46.6228C9.18251 46.8564 9.22627 47.1046 9.27003 47.3382C9.27003 47.2944 9.27003 47.2652 9.25545 47.236ZM12.1144 53.5575C11.7351 52.9151 11.2975 52.3165 10.9037 51.6742C10.6995 49.8347 9.91183 47.8637 9.15334 46.1702C9.15334 46.1556 9.13876 46.1702 9.13876 46.1702C9.13876 45.9074 9.12417 45.6446 9.13876 45.3672C9.13876 45.3088 9.03665 45.2796 9.02207 45.3526V45.3672C9.05124 43.2503 9.31379 41.1042 9.518 39.0019C9.63469 37.834 9.75138 36.6368 9.85348 35.4251C9.79514 36.374 9.75138 37.323 9.82431 38.2574C9.82431 38.3595 9.941 38.4033 10.0139 38.3887C9.41589 40.6516 9.27003 43.0751 9.64927 45.3818C9.64927 45.3818 9.64927 45.3818 9.64927 45.3964C9.64927 45.4256 9.66386 45.4694 9.67845 45.4986C9.73679 45.8344 9.80972 46.1556 9.88266 46.4768C10.2765 48.3163 10.787 50.331 11.8372 51.791C11.9101 51.8786 12.056 51.8348 12.0268 51.7034C11.7789 50.6814 11.2683 49.7471 10.8891 48.7689C10.5974 48.0097 10.3494 47.2506 10.116 46.4768C9.92641 43.8343 9.95559 41.3524 10.3202 38.7829C10.4661 40.929 10.6411 43.3817 11.2829 45.411C11.3121 45.4986 11.4434 45.484 11.4434 45.3818C11.458 44.8271 11.4288 44.2577 11.3705 43.6883C11.4288 42.5058 11.3705 41.294 11.3705 40.1261C11.3705 39.9071 11.035 39.9071 11.035 40.1261C11.035 40.5494 11.0204 40.9728 11.0204 41.3962C10.8453 40.4473 10.6266 39.5129 10.4223 38.6223C10.4078 38.5785 10.3786 38.5785 10.3494 38.5931C10.4223 38.1114 10.4807 37.6442 10.5682 37.1624C10.5974 37.0456 10.4369 37.0018 10.3932 37.1186C10.3057 37.3668 10.2327 37.615 10.1598 37.8632C10.2473 37.396 10.3057 36.9288 10.364 36.4616C12.1435 39.8049 15.6734 42.6372 19.0866 44.1117C19.7575 48.0681 20.1368 52.0684 20.7494 56.0102C17.9634 52.1268 13.4125 49.5427 12.654 44.4329C12.6395 44.3453 12.5082 44.3745 12.5082 44.4475C12.4936 45.0315 12.5665 45.5716 12.6686 46.0826C12.5811 45.9804 12.3915 46.0388 12.4352 46.1994C12.8291 47.3966 13.1062 48.8273 13.7772 49.8931C13.8355 49.9806 13.996 49.9515 13.9814 49.8347C13.9376 49.4697 13.8355 49.1047 13.7188 48.7251C14.9003 50.6668 16.7528 52.2728 18.474 53.9517C18.474 53.9955 18.4594 54.0247 18.4885 54.0685C19.0282 55.0904 19.5679 56.3022 20.2535 57.3387C19.7721 56.7402 19.0137 56.2438 18.4885 55.7328C17.5988 54.8422 16.8549 53.8203 16.1547 52.7691C16.0089 52.5501 15.7026 52.7399 15.8047 52.9735C16.2131 53.9079 16.782 54.7254 17.4092 55.5138C17.3654 55.47 17.3071 55.4116 17.2633 55.3678C16.1256 54.1415 15.0024 52.8713 13.7334 51.7618C13.5876 51.645 13.3396 51.8056 13.4563 51.9808C14.346 53.2071 15.3817 54.3313 16.3881 55.4554C17.4821 56.6672 18.5469 58.2439 19.9618 59.0761C20.1076 59.1637 20.2389 59.0031 20.1806 58.8571C19.9472 58.3753 19.6117 57.9227 19.2616 57.4993C19.6263 57.7767 20.0201 57.9811 20.4285 58.0249C20.5598 58.0395 20.6036 57.8935 20.5598 57.7913C20.5452 57.7475 20.5014 57.7037 20.4723 57.6599C20.6911 57.9665 20.9244 58.2439 21.187 58.4921C21.2745 58.9301 21.362 59.368 21.4641 59.806C21.4641 59.9666 21.4933 60.1272 21.5662 60.2732C21.6538 60.6674 21.7267 61.0616 21.8288 61.4558C21.8434 61.5288 21.9455 61.5142 21.9601 61.4412C21.9892 61.5434 22.0476 61.631 22.1205 61.7039C22.0038 61.8353 21.8871 61.9667 21.7705 62.0981C21.5371 61.7915 21.2891 61.5142 21.0703 61.2222C20.5744 60.536 20.1805 59.7768 19.6846 59.0761C19.6263 59.0031 19.5533 58.9739 19.4804 58.9739C19.4804 58.9447 19.4658 58.9155 19.4512 58.9009C18.4156 57.8351 17.1758 56.9884 16.1402 55.908C15.0024 54.7254 14.1127 53.3823 13.1937 52.0392C13.0916 51.8786 12.7853 51.9808 12.8728 52.1706C13.3834 53.3823 14.1564 54.6525 15.1045 55.8204C13.8355 54.6087 12.6832 53.2801 11.6768 51.6742C11.5747 51.5136 11.3559 51.6596 11.4288 51.8202C11.9247 52.8421 12.5374 53.8495 13.2667 54.7984C12.8291 54.4043 12.4644 53.9809 12.1144 53.5575ZM19.6117 42.6226C19.67 42.535 19.7284 42.4474 19.7867 42.3598C19.743 42.5788 19.7138 42.8124 19.6992 43.0459C19.6846 42.9 19.6554 42.7686 19.6117 42.6226ZM21.8726 55.9518C22.6748 54.8568 23.4041 53.6743 24.0459 52.4333C24.148 52.7107 24.2355 53.0027 24.3522 53.2801C24.396 53.3823 24.6002 53.3969 24.5856 53.2509C24.5856 53.2363 24.5856 53.2363 24.5856 53.2217C24.5273 52.7253 24.4689 52.2144 24.4251 51.7034C24.571 51.3822 24.7169 51.061 24.8627 50.7398C24.9503 51.207 24.8919 51.6742 25.0086 52.1268C25.0232 52.2144 25.1399 52.229 25.1836 52.156C25.5045 51.572 25.3733 50.8566 25.0961 50.1996C25.9421 48.0973 26.5256 45.8782 26.7735 43.6591C26.6714 45.8344 26.5256 48.0097 26.4818 50.2142C26.2047 50.7544 25.9421 51.3092 25.6796 51.864C25.5921 51.864 25.5045 51.8932 25.4608 51.9954C24.4397 53.9079 23.4187 55.8058 22.4414 57.7475C22.3393 57.9373 22.208 58.1563 22.0768 58.3753C22.0476 58.3169 22.0184 58.2731 22.0038 58.2147C21.9455 57.4263 21.9309 56.6964 21.8726 55.9518ZM24.3376 52.2144C24.3085 52.1268 24.2939 52.0392 24.2647 51.9516C24.2793 51.9078 24.3085 51.8786 24.323 51.8348C24.3376 51.9662 24.3376 52.083 24.3376 52.2144ZM24.3376 49.4989C24.4106 49.6157 24.4835 49.7179 24.5418 49.8347C24.4689 50.0098 24.4106 50.185 24.3376 50.3602C24.3376 50.0682 24.3376 49.7909 24.3376 49.4989ZM34.9564 33.4104C34.6793 31.381 34.373 29.3517 34.0667 27.3224C34.723 29.1473 35.6128 30.8847 36.8381 32.403C36.8818 32.4614 36.9693 32.3884 36.9402 32.33C35.7003 30.3883 34.6793 28.4174 33.9354 26.2859C33.6583 24.3879 33.3811 22.5046 33.1331 20.6067C33.1331 19.6577 33.1623 18.7088 33.2352 17.7598C34.0813 20.1687 35.1315 22.7528 36.488 24.8405C36.9985 29.6583 37.3923 34.4177 36.663 39.3085C36.5172 37.0164 36.0796 34.6367 35.1169 32.6658C35.0439 32.5198 34.8689 32.6366 34.8835 32.768C35.1606 34.6075 35.569 36.4178 35.9483 38.2428C35.9191 38.4471 35.8754 38.6515 35.8462 38.8559C35.6566 37.3814 35.394 35.9068 35.1023 34.4469C35.0585 34.0819 35.0002 33.7461 34.9564 33.4104ZM35.817 18.154C35.8462 18.5774 35.8899 19.0008 35.9337 19.4242C35.9191 19.3658 35.8899 19.2928 35.8608 19.2344C35.8316 18.8694 35.8316 18.5044 35.817 18.154ZM37.7424 29.9065C37.7278 29.7167 37.7132 29.5415 37.6986 29.3517C37.6986 29.3517 37.7132 29.3517 37.7132 29.3371C39.0114 27.1472 39.9158 24.5047 40.7326 22.0228C40.7909 22.3732 40.8493 22.7382 40.893 23.0886C40.8347 23.1178 40.7909 23.1616 40.7618 23.2346C39.872 25.5997 38.7343 27.848 37.7424 30.1693C37.757 30.0817 37.7424 29.9941 37.7424 29.9065ZM40.4409 31.4102C40.4263 31.4394 40.4263 31.454 40.4117 31.4832C40.4263 31.4394 40.4409 31.381 40.4554 31.3372C40.4554 31.3664 40.4554 31.3956 40.4409 31.4102ZM35.4524 51.9224C35.5399 51.9224 35.642 51.9224 35.7295 51.9224C35.1315 52.2582 34.548 52.6085 33.9937 52.9589C33.9937 52.9443 33.9937 52.9443 34.0083 52.9297C34.4021 52.5355 34.7668 52.1122 35.1169 51.645C35.1606 51.791 35.2773 51.9078 35.4524 51.9224ZM49.1634 28.0232C49.0613 28.213 48.9738 28.4028 48.9009 28.6072C48.828 28.797 48.755 28.9867 48.6821 29.1765C48.6383 29.2203 48.5946 29.2787 48.5508 29.3225C48.5946 29.1765 48.6529 29.0159 48.6967 28.8699C48.9009 28.2714 49.0759 27.6582 49.2655 27.0596C49.2801 27.2348 49.2947 27.4246 49.3093 27.6144C49.2655 27.7312 49.2072 27.8772 49.1634 28.0232ZM50.8992 18.2124C51.0013 18.3146 51.1763 18.3292 51.2493 18.1978C50.9576 19.322 50.7388 20.4607 50.4762 21.5849C50.447 21.7163 50.4033 21.8476 50.3741 21.979C50.5345 20.4899 50.695 19.0154 50.7533 17.5116C50.7679 17.6284 50.7825 17.7452 50.7971 17.8474C50.7971 17.8912 50.7679 17.9496 50.7679 17.9934C50.7679 18.1248 50.8263 18.1832 50.8992 18.2124ZM37.8153 31.4248C38.0779 30.9869 38.355 30.5343 38.5884 30.0671C38.3259 30.6219 38.0633 31.1767 37.8153 31.746C37.8153 31.6292 37.8153 31.527 37.8153 31.4248ZM37.8445 33.5126C37.932 33.3666 38.005 33.206 38.0925 33.06C38.005 33.2498 37.9174 33.4396 37.8445 33.6293C37.8445 33.5855 37.8445 33.5418 37.8445 33.5126ZM41.1702 27.1326C41.0243 27.0742 40.8639 27.0888 40.7909 27.2786C40.6013 27.7166 40.3825 28.1546 40.1783 28.5926C40.5138 27.7896 40.8347 27.0012 41.1848 26.2275C41.1702 26.5194 41.1848 26.826 41.1702 27.1326ZM37.7862 35.6441C37.9466 35.3667 38.1071 35.0747 38.2529 34.7827C38.0633 35.2645 37.9029 35.7317 37.7278 36.2134C37.757 36.0236 37.7716 35.8339 37.7862 35.6441ZM34.4167 53.4845C34.1688 53.6305 33.9354 53.8057 33.702 53.9663C33.7458 53.8203 33.7895 53.6743 33.8333 53.5283C34.1688 53.3823 34.4897 53.2217 34.8252 53.0757C34.6793 53.2071 34.548 53.3385 34.4167 53.4845ZM35.1606 44.0533C35.1898 44.0533 35.1898 44.0533 35.219 44.0533C35.2044 44.1117 35.1752 44.1847 35.146 44.2431C35.146 44.2285 35.146 44.2285 35.1315 44.2139C35.146 44.1555 35.1606 44.0971 35.1606 44.0533ZM35.5399 42.17C35.5253 42.2138 35.5253 42.2576 35.5253 42.3014C35.5253 42.17 35.5253 42.024 35.5107 41.8926C35.5253 41.7758 35.5399 41.6444 35.5545 41.5276C35.5545 41.732 35.5399 41.951 35.5399 42.17ZM33.2352 52.5063C33.2352 52.4771 33.2207 52.4625 33.2061 52.4333C33.2644 52.3019 33.3228 52.156 33.3811 52.01C33.3374 52.1852 33.2936 52.3457 33.2352 52.5063ZM36.3421 41.1042C36.3421 40.9144 36.3567 40.7246 36.3567 40.5349C36.3567 40.5203 36.3567 40.5057 36.3713 40.4765C36.3859 40.564 36.4005 40.637 36.4151 40.7246C36.3859 40.8414 36.3567 40.9728 36.3421 41.1042ZM35.642 40.3597C35.5836 40.3305 35.5253 40.3451 35.4815 40.3889C35.4815 39.9363 35.4815 39.4837 35.4669 39.0457C35.5399 39.3815 35.6128 39.7173 35.6712 40.0531C35.6566 40.1553 35.6566 40.2575 35.642 40.3597ZM36.8089 52.4625C36.7943 52.4625 36.7943 52.4625 36.8089 52.4625C37.0423 52.2874 37.3048 52.1122 37.582 51.937C37.3194 52.1122 37.0568 52.2874 36.8089 52.4625ZM37.1298 39.4253C37.2902 38.8997 37.4215 38.3595 37.509 37.8194C37.6549 37.8778 37.8299 37.8632 37.9174 37.688C38.1362 37.25 38.3404 36.7828 38.5446 36.3302C38.5446 36.3594 38.5301 36.374 38.5301 36.4032C38.0779 37.4106 37.5965 38.4179 37.1298 39.4253ZM41.0097 28.7824C40.9806 28.797 40.9514 28.8116 40.9222 28.8554C40.7618 29.1765 40.6013 29.5123 40.4554 29.8335C40.6597 29.3371 40.8639 28.8554 41.0681 28.3736C41.0535 28.505 41.0243 28.6364 41.0097 28.7824ZM41.1556 25.3223C41.1702 25.4537 41.1556 25.5705 41.1702 25.7019C41.0389 25.5705 40.8347 25.5413 40.7326 25.7457C40.1345 26.9866 39.4928 28.2422 38.8655 29.4977C39.7115 27.7312 40.3971 25.8625 41.0389 24.0522C41.0827 24.4755 41.1264 24.8989 41.1556 25.3223ZM37.086 22.4754C37.6841 20.0227 38.2383 17.643 39.1427 15.2633C39.3615 16.0663 39.5657 16.8547 39.7699 17.6576C38.7489 19.3366 37.5965 21.4535 37.2027 23.4974C37.159 23.1616 37.1298 22.8112 37.086 22.4754ZM36.1233 21.4389C36.1963 22.1542 36.2692 22.8696 36.3567 23.585C35.5836 21.3659 34.4313 19.1176 33.279 17.132C33.3519 16.1685 33.4686 15.2049 33.6145 14.256C34.2563 16.6649 35.0294 19.176 36.1233 21.4389ZM20.8661 56.9446C20.6181 56.5066 20.341 56.0832 20.0347 55.6598C20.2972 55.9664 20.5598 56.273 20.8078 56.5942C20.8369 56.711 20.8515 56.8278 20.8661 56.9446ZM21.9455 60.6382C21.9747 60.6382 22.0038 60.6382 22.033 60.6236C22.2956 60.4922 22.2956 60.4338 22.3247 60.1418C22.3247 60.0688 22.2664 59.9812 22.1935 59.9666C22.1497 59.9666 22.1059 59.952 22.0622 59.9374C22.0622 59.9374 22.0622 59.9374 22.0476 59.9374C22.3101 59.441 22.9374 58.1855 23.6229 56.8132C23.5937 57.0176 23.55 57.2365 23.5646 57.4409C23.5646 57.5431 23.6521 57.5723 23.7396 57.5577C23.5646 57.9373 23.4187 58.3315 23.2874 58.7111C22.8061 59.514 22.3539 60.317 21.9455 61.1492C21.9309 61.1638 21.9309 61.193 21.9309 61.2076C21.9309 61.047 21.9309 60.8426 21.9455 60.6382ZM20.764 71.5439C20.764 71.5439 20.7786 71.5439 20.7786 71.5585C20.6181 71.8797 20.4577 72.1717 20.2972 72.4783C20.3264 72.3907 20.3702 72.3031 20.3993 72.2301C20.5306 71.9965 20.6473 71.7629 20.764 71.5439ZM22.4122 69.0328C22.4122 69.0766 22.4122 69.1058 22.4122 69.1496C22.3685 69.208 22.3393 69.2664 22.3101 69.3102C22.3393 69.2226 22.3685 69.1204 22.4122 69.0328ZM21.5371 69.9672C21.6246 70.0402 21.7267 70.0694 21.8288 70.0548C21.6683 70.3176 21.4933 70.5658 21.3329 70.8286C21.4204 70.5366 21.4787 70.2446 21.5371 69.9672ZM22.631 63.8939C22.6019 63.8939 22.5581 63.8793 22.5289 63.8939C22.4852 63.9085 22.4706 63.9231 22.4414 63.9377C22.4268 63.9085 22.4268 63.8647 22.4122 63.8355C22.4852 63.7771 22.5435 63.7041 22.6019 63.6311C22.6165 63.7187 22.6165 63.8063 22.631 63.8939ZM24.4981 58.0103C24.5564 58.0687 24.6294 58.0979 24.7023 58.0979C24.3668 58.6819 24.0021 59.2367 23.6083 59.7914C23.9146 59.2075 24.2209 58.6089 24.4981 58.0103ZM21.2162 63.9523C21.2599 64.2442 21.3037 64.5508 21.3475 64.8428C21.3475 64.8282 21.3329 64.8136 21.3329 64.799C21.3037 64.7552 21.2745 64.726 21.2308 64.7114C21.2162 64.4194 21.187 64.1421 21.1432 63.8647C21.1578 63.9085 21.187 63.9231 21.2162 63.9523ZM21.3037 65.7188C21.3475 65.8064 21.3766 65.9086 21.4204 65.9962C21.4641 66.113 21.5079 66.2444 21.5517 66.3757C21.5371 66.4633 21.5662 66.5363 21.5662 66.6093C21.5079 66.7553 21.435 66.9013 21.3766 67.0473C21.3912 66.6093 21.3766 66.1714 21.3037 65.7188ZM27.5612 49.8201C27.5612 49.8347 27.5612 49.8347 27.5612 49.8201C27.182 50.6376 26.8173 51.4698 26.4526 52.3019C26.4818 52.1268 26.511 51.9662 26.5402 51.8056C26.5547 51.791 26.5693 51.8056 26.5693 51.791C27.2111 49.9953 27.532 48.0827 27.8529 46.1848C27.8383 47.4112 27.7362 48.6229 27.5612 49.8201ZM27.6925 45.8636C27.7508 45.2213 27.78 44.5643 27.78 43.9073C27.8092 44.3891 27.8237 44.8563 27.8383 45.338C27.78 45.5132 27.7362 45.6884 27.6925 45.8636ZM19.5242 60.2148C18.9699 59.733 18.3864 59.2951 17.7884 58.8571C18.0801 59.0031 18.3573 59.1491 18.649 59.2805C18.7803 59.3388 18.897 59.1345 18.7949 59.0469C18.7219 58.9885 18.6636 58.9447 18.5906 58.8863C18.7949 58.9885 18.9991 59.1053 19.2033 59.1929C19.2033 59.2221 19.1887 59.2513 19.1887 59.2951C19.4075 60.1418 19.8597 60.9156 20.341 61.6456C20.589 62.0105 20.8515 62.4047 21.1578 62.7405C21.1432 62.7551 21.1432 62.7551 21.1287 62.7697C21.0703 62.8281 21.0266 62.9011 20.9974 62.9741C20.9828 62.9303 20.9828 62.8719 20.939 62.8281C20.8953 62.7843 20.8661 62.7551 20.8223 62.7113C20.8078 62.6675 20.7932 62.6237 20.7786 62.5799C20.7494 62.5215 20.6911 62.5069 20.6327 62.5361C19.4367 61.3828 18.1531 60.317 16.8841 59.2513C17.7009 59.7768 18.5323 60.2148 19.3637 60.5068C19.5242 60.5652 19.6554 60.3316 19.5242 60.2148ZM19.9326 75.0186C20.0493 75.0186 20.1514 74.9748 20.2389 74.858C20.589 74.3908 20.9244 73.909 21.2599 73.4273C21.0266 73.909 20.7932 74.4054 20.5744 74.9018C20.4431 75.0624 20.2972 75.2376 20.166 75.3982C19.8742 75.6026 19.5825 75.7924 19.3054 75.9967C19.5388 75.6756 19.743 75.3544 19.9326 75.0186ZM35.4378 78.0844C35.3211 78.0553 35.1898 78.0115 35.0731 77.9823C35.1023 77.9823 35.1315 77.9969 35.1752 77.9969C35.2627 78.0261 35.3503 78.0699 35.4378 78.0844ZM30.07 75.6318C30.318 75.7777 30.5805 75.9237 30.8431 76.0697C29.9096 75.7631 28.9615 75.3982 27.9988 74.931C27.9404 74.9018 27.8967 74.931 27.8821 74.9748C27.0799 74.5514 26.2776 74.1572 25.4754 73.763C25.8692 73.5586 26.263 73.3542 26.6568 73.1499C28.028 73.9966 29.4428 74.7996 30.8723 75.5296V75.5442C31.3974 75.8215 31.9371 76.0843 32.4914 76.3325C31.7183 76.0551 30.9452 75.7632 30.1721 75.4274C30.0409 75.3836 29.9388 75.5588 30.07 75.6318ZM27.1236 63.1931C27.0944 63.2077 27.0653 63.2223 27.0507 63.2369C26.3797 64.1566 25.7671 65.1202 25.1545 66.0838C25.2857 65.8356 25.4316 65.5874 25.5629 65.3246C25.6358 65.1786 25.4462 65.0034 25.3295 65.1494C24.5856 66.0692 23.8417 67.0619 23.127 68.0839C23.127 67.8211 23.127 67.5729 23.127 67.3101C23.2437 67.3101 23.3604 67.2225 23.3604 67.0765C23.3604 67.0181 23.3604 66.9743 23.3604 66.9159C23.3604 66.9013 23.3749 66.8867 23.3749 66.8721C23.4479 66.8721 23.5208 66.8721 23.5791 66.8137C25.5045 65.0472 26.759 62.5945 28.1592 60.4046C29.0344 59.0323 30.0846 57.6599 31.0036 56.2438C29.8512 58.6527 28.5093 60.9448 27.1236 63.1931ZM49.3093 47.9513C49.426 47.8929 49.5427 47.8345 49.6594 47.7761C49.4989 47.8637 49.3385 47.9513 49.178 48.0243C49.2218 47.9951 49.2655 47.9805 49.3093 47.9513ZM47.136 49.3091L47.1214 49.3237C47.1214 49.3237 47.1214 49.3091 47.136 49.3091ZM59.7093 42.7248C61.5909 41.951 63.4434 41.1772 65.3104 40.4619C64.7124 40.7246 64.1144 40.9874 63.5309 41.2648C62.4661 41.659 61.4451 42.1116 60.4678 42.6372C60.4532 42.6372 60.424 42.6372 60.4094 42.6664C60.3949 42.681 60.3949 42.681 60.3803 42.6956C59.5926 43.1335 58.8341 43.6007 58.1486 44.1409C58.1048 44.1847 58.1048 44.2431 58.1194 44.2869C56.7775 45.1045 55.4501 45.8928 54.1082 46.5936C56.0482 45.411 57.9152 44.0679 59.7093 42.7248ZM70.1822 37.834C70.1385 37.8632 70.1385 37.8924 70.1385 37.9362C69.4238 38.0822 68.6944 38.2574 67.9651 38.4617C68.7674 38.2136 69.5842 37.9654 70.401 37.7318C70.3135 37.761 70.2406 37.7902 70.1822 37.834ZM70.6344 38.126C70.8094 38.1406 70.9845 38.1552 71.1595 38.1406C71.1595 38.1844 71.1741 38.2136 71.1887 38.2428C68.5486 38.8413 65.8939 39.6151 63.3705 40.6662C63.8956 40.4327 64.4061 40.2137 64.9312 40.0093C66.7982 39.2793 68.7236 38.7245 70.6344 38.126ZM76.7023 37.1186C76.746 37.0164 76.7023 36.8704 76.5564 36.8704C75.725 36.9288 74.8498 37.031 73.9893 37.177C73.4787 37.2062 72.9682 37.25 72.4577 37.323C72.1368 37.3668 71.7867 37.3814 71.4512 37.4252C71.6846 37.3668 71.9034 37.2938 72.1222 37.2354C72.2535 37.2062 72.2243 36.9872 72.093 37.0018C68.3444 37.323 64.0123 38.3449 60.8179 40.4181C60.7012 40.5057 60.7741 40.6954 60.92 40.6662C62.0869 40.3305 63.2392 39.9655 64.3769 39.6005C62.5974 40.2721 60.8762 41.1042 59.4176 42.097C59.3155 42.1554 59.3738 42.3306 59.5051 42.2868C60.3365 42.0094 61.1388 41.659 61.941 41.3086C61.2409 41.6444 60.5407 42.0094 59.8698 42.389C59.8406 42.3744 59.8114 42.3744 59.7676 42.4036C57.6964 43.5715 55.5814 44.8125 53.5831 46.1994C53.2476 46.3746 52.9121 46.5498 52.562 46.725C52.4599 46.7688 52.5183 46.9002 52.6204 46.9002C52.1974 47.2068 51.7744 47.5134 51.3806 47.8345C51.3514 47.8637 51.3368 47.8929 51.3368 47.9367C50.4033 48.3309 49.4406 48.6667 48.4341 48.9733C49.251 48.4623 50.2866 47.7907 50.447 47.7031C50.5929 47.6155 50.4908 47.4258 50.3449 47.4404C53.1892 45.9512 55.9606 44.0971 58.6445 42.4036C58.7029 42.3744 58.6445 42.2868 58.6007 42.3306C55.8585 43.7905 52.9413 45.2213 50.2866 46.9148C49.5573 47.309 48.8425 47.7031 48.1132 48.1119C47.4569 48.4915 46.6254 48.7981 46.1733 49.4259C46.1441 49.4551 46.1587 49.5135 46.1733 49.5427C44.8022 49.8201 43.4165 50.0098 42.0308 50.1704C42.0599 50.0828 41.9724 49.9661 41.8703 49.9953C41.6223 50.0682 41.389 50.1558 41.141 50.2434C41.1702 50.2142 41.1848 50.1704 41.1702 50.1412C44.4667 48.7251 47.3839 46.2578 50.2282 43.8927C50.272 43.9511 50.3449 43.9657 50.3887 43.9073C50.4616 43.8051 50.52 43.7029 50.5929 43.6007C51.1326 43.1627 51.6723 42.7102 52.1974 42.2868C52.3141 42.3452 52.4745 42.3306 52.562 42.1846C52.635 42.0678 52.6933 41.951 52.7517 41.8488C53.1601 41.5276 53.5831 41.221 53.9915 40.9144C61.3867 35.6295 69.5113 36.3448 78.0151 36.958C77.5921 37.0018 77.1399 37.0602 76.7023 37.1186ZM48.0986 40.7684C48.157 40.8268 48.2299 40.8414 48.3174 40.7976C47.2381 42.5058 46.2754 44.3599 45.5606 46.1702C45.5169 46.287 45.6919 46.3308 45.7503 46.2578C47.1505 44.4037 48.3904 42.2284 49.3822 40.0823C49.849 39.7611 50.3303 39.4545 50.8117 39.1479C49.7469 40.783 48.8863 42.5788 48.3466 44.4329C46.7421 45.703 45.1231 46.8856 43.4602 47.9805C44.1166 47.1776 44.5979 46.2432 45.1085 45.3526C45.7065 44.2869 46.4212 43.2211 46.7567 42.0532V42.0386C47.1797 41.6006 47.6319 41.1772 48.0986 40.7684ZM70.0072 35.4543C68.8403 35.4397 67.6734 35.5127 66.5065 35.6295C67.2066 35.4835 67.9068 35.3375 68.6215 35.1769C69.0737 35.2645 69.5404 35.3521 70.0072 35.4543ZM51.8036 41.659C52.6496 40.1991 53.4372 38.6807 54.1519 37.2208C54.4145 37.0894 54.7062 36.9726 54.9688 36.8558C54.6041 37.3668 54.2686 37.9216 53.9769 38.3595C53.3789 39.2647 52.7808 40.2283 52.3432 41.2356C52.1682 41.3816 51.9786 41.5276 51.8036 41.659ZM49.2072 43.7467C49.0905 43.8489 48.9738 43.9219 48.8571 44.0241C49.8198 42.1554 50.7825 40.3159 51.8327 38.5055C52.2703 38.2428 52.7371 37.9946 53.1892 37.7464C52.1536 39.2355 51.2347 40.9144 50.6075 42.6226C50.1407 42.9875 49.674 43.3671 49.2072 43.7467ZM64.056 35.1039C63.808 35.1623 63.5747 35.1915 63.3267 35.2645C63.4288 35.1915 63.5309 35.1039 63.6184 35.0309C63.8518 35.0163 64.0706 35.0017 64.304 34.9871C64.231 35.0163 64.1435 35.0601 64.056 35.1039ZM62.4515 35.1039C62.116 35.3375 61.7514 35.5711 61.4159 35.8193C61.1388 35.9068 60.8762 36.0236 60.5991 36.1258C60.9345 35.8193 61.27 35.4981 61.5909 35.1769C61.8827 35.1477 62.1744 35.1185 62.4515 35.1039ZM59.7093 35.9361C59.2863 36.301 58.8487 36.6806 58.4257 37.0602C57.7985 37.3668 57.1859 37.7026 56.6024 38.0676C56.8066 37.7172 57.0254 37.3814 57.2588 37.0894C57.7402 36.5054 58.3236 36.0382 58.9071 35.5565C59.4176 35.4543 59.9427 35.3667 60.4532 35.3083C60.2052 35.5127 59.9573 35.7171 59.7093 35.9361ZM54.5458 38.6953C55.0125 37.9508 55.7418 37.1624 56.1503 36.3302C56.5149 36.1842 56.8796 36.0674 57.2442 35.9506C57.0546 36.1404 56.865 36.3302 56.6899 36.5346C56.1357 37.1624 55.3918 38.0822 55.2167 38.9873C54.925 39.2063 54.6187 39.4107 54.3561 39.6297C54.2832 39.6881 54.2686 39.7611 54.2832 39.8341C54.0644 39.9801 53.8456 40.1261 53.6268 40.2721C53.9477 39.7465 54.2249 39.2063 54.5458 38.6953ZM45.9982 42.7394C45.5752 43.3525 45.2252 44.0241 44.8459 44.6665C44.2333 45.7322 43.5477 46.798 43.1393 47.9513C43.1101 48.0243 43.1685 48.0827 43.2268 48.1119C42.585 48.5353 41.9287 48.9587 41.2577 49.3529C40.2512 49.3821 39.274 49.8493 38.3842 50.3164C40.9805 47.8783 43.431 45.2213 45.9982 42.7394ZM66.3606 2.02169C66.3898 2.08009 66.4482 2.13849 66.5065 2.12389C66.7836 2.06549 66.9878 1.8611 67.2066 1.67131C67.2066 2.15309 66.2585 3.77362 66.2585 3.77362C65.6167 5.17516 65.3396 6.78109 64.9895 8.27023C64.7853 9.18999 64.5519 10.0951 64.3186 10.9857C64.4061 10.4747 64.4644 9.96375 64.5374 9.45278C64.5519 9.33598 64.3477 9.30678 64.3331 9.42358C63.9101 11.8763 62.8891 14.1538 62.2473 16.5481C62.2327 16.5773 62.2619 16.5919 62.2765 16.6211C61.9702 17.2926 61.6493 17.9496 61.2846 18.6066C58.4986 23.5412 54.3562 26.8552 50.0678 30.1401C50.0824 30.1255 50.097 30.1109 50.1115 30.0817C50.2282 29.9357 49.9949 29.7897 49.8636 29.8919C49.1634 30.5051 48.4925 31.1621 47.8361 31.8482C47.6027 32.0234 47.3693 32.2132 47.136 32.403C47.8653 31.3226 48.5654 30.2423 49.1926 29.1181C49.2364 29.0451 49.2072 28.9867 49.178 28.9283C49.426 28.213 49.674 27.4684 49.8052 26.7238C49.8198 26.6362 49.6885 26.5632 49.6448 26.6654C49.5864 26.7822 49.5573 26.899 49.5135 27.0158C49.5427 26.6362 49.5864 26.2567 49.6156 25.8771C49.6302 25.8187 49.6448 25.7749 49.6594 25.7165C49.7177 25.7311 49.7906 25.7019 49.8198 25.6435C51.0305 23.4536 51.5993 20.2709 51.5702 17.7598C51.6431 17.6868 51.716 17.6138 51.789 17.5262C51.7744 17.7014 51.7744 17.8912 51.8181 18.0518C51.8473 18.1832 52.0224 18.2416 52.1245 18.1394C52.6496 17.5554 52.7517 16.6503 53.058 15.9349C53.4956 14.9275 54.1374 13.9786 54.8083 13.1172C55.0271 12.8398 54.677 12.4602 54.4145 12.723C54.2249 12.9274 54.0644 13.1464 53.8894 13.3508C54.2395 12.6062 54.5458 11.8325 54.7062 11.0295C54.7208 10.9419 54.6041 10.8543 54.5458 10.9273C54.0936 11.4091 53.7144 11.9493 53.3643 12.5186C53.8019 11.8179 54.2832 11.1317 54.7792 10.4747C58.134 7.21907 62.7578 4.99996 66.3606 2.02169ZM53.0142 13.2048C53.1017 13.0442 53.1892 12.8836 53.2768 12.7376C53.1892 12.8982 53.1017 13.0442 53.0142 13.2048ZM40.6597 41.732C39.7845 43.2941 38.9676 44.8709 38.2238 46.4768C37.8591 46.9148 37.4944 47.3674 37.1735 47.8491C37.4069 47.2652 37.5965 46.6958 37.757 46.141C37.7716 46.1118 37.757 46.0826 37.7424 46.0534C38.7489 44.6227 39.697 43.1773 40.6597 41.732ZM36.0942 50.112C36.0504 50.2872 36.0212 50.4478 36.0066 50.623C35.9921 50.7982 36.2254 50.8712 36.3421 50.7544C36.3567 50.7398 36.3859 50.7106 36.4005 50.696C36.3859 50.7982 36.4005 50.8712 36.4442 50.9442C36.1233 51.0026 35.7878 51.061 35.4669 51.134C35.6857 50.8128 35.8899 50.4624 36.0942 50.112ZM40.6159 21.3951C39.5073 23.7018 38.3259 26.1545 37.6549 28.6072C37.582 27.4392 37.4944 26.2859 37.3777 25.1325C37.8299 24.1543 38.0195 23.0594 38.3259 22.0374C38.7343 20.6797 39.274 19.3658 39.872 18.081C39.9887 18.5774 40.1054 19.0592 40.2221 19.5555C39.1864 21.5995 38.1654 23.7602 37.6111 25.9209C37.5674 26.0523 37.757 26.1399 37.8299 26.0231C38.8947 24.3149 39.697 22.3294 40.3971 20.3585C40.4846 20.7089 40.5575 21.0593 40.6159 21.3951ZM39.026 14.8545C38.0925 16.7233 37.2756 18.7672 36.8526 20.8549C36.7943 20.4461 36.736 20.0373 36.6776 19.6285C37.4069 17.2926 37.8007 14.8253 38.3404 12.4456C38.355 12.3727 38.2383 12.3289 38.2238 12.4164C37.6695 14.5918 37.0131 16.7671 36.5755 18.9862C36.488 18.4168 36.3859 17.8474 36.2838 17.278C36.7068 15.0735 36.8964 12.8106 37.1735 10.5769C37.1735 10.5331 37.1006 10.5185 37.086 10.5623C36.7651 12.504 36.3713 14.4604 36.1233 16.4313C36.0212 15.8619 35.9191 15.2779 35.8024 14.7086C35.8024 14.694 35.7878 14.694 35.7733 14.694C35.8462 12.2559 36.1087 9.84696 36.663 7.26287C36.6776 7.18987 36.5755 7.16067 36.5463 7.23367C35.2919 10.3433 34.7814 14.0954 35.2044 17.5554C34.7085 16.3145 34.1688 15.1027 33.6145 13.9348C34.2125 10.0951 35.3065 6.34311 36.7943 2.75166C36.8818 6.89788 37.9466 10.8689 39.026 14.8545ZM31.5141 53.3969C31.4849 53.4699 31.4703 53.5575 31.4411 53.6305C31.3974 53.6743 31.3536 53.7181 31.3244 53.7619C31.3974 53.6451 31.4557 53.5137 31.5141 53.3969ZM22.9228 29.4247C24.6585 32.184 25.9713 35.2061 26.8173 38.3449C26.8465 39.3085 26.8465 40.2867 26.8173 41.2356C26.759 41.2064 26.7006 41.1918 26.686 41.2648C26.263 44.2139 25.6212 46.8856 24.6877 49.4697C24.571 49.2945 24.4543 49.1193 24.323 48.9879C24.2355 48.8857 24.1043 49.0025 24.1188 49.1047C24.1918 49.5719 24.2501 50.039 24.2793 50.5208C24.1918 50.7252 24.1188 50.9296 24.0313 51.1194C23.7834 50.3164 23.4916 49.5135 23.2145 48.7397C23.1853 48.6521 23.054 48.6813 23.0686 48.7835C23.2874 49.7325 23.5062 50.7106 23.7834 51.6596C23.6083 52.0392 23.4479 52.4187 23.2728 52.7983C23.1124 51.572 22.704 50.3164 22.3977 49.1485C22.3831 49.0609 22.2518 49.1047 22.2664 49.1923C22.4998 50.477 22.6602 51.8932 23.0978 53.1341C22.704 53.9079 22.2664 54.6816 21.7996 55.4554C21.5954 53.0757 21.2162 50.6522 20.764 48.2725C20.8807 48.2871 21.012 48.2141 20.9974 48.0681C20.9244 47.0024 20.6036 45.9804 20.4723 44.9147C20.341 43.8489 20.3848 42.7686 20.3848 41.6882C20.3848 41.6298 20.3556 41.586 20.3264 41.5422C22.281 38.2428 23.1561 34.1987 22.5289 30.4175C22.5144 30.3299 22.3685 30.3591 22.3685 30.4321C22.456 34.4907 21.785 37.98 20.0347 41.4838C19.9909 41.513 19.9472 41.5568 19.9326 41.6152C19.918 41.6444 19.918 41.6882 19.918 41.7174C19.8013 41.9364 19.67 42.17 19.5533 42.389C19.3491 41.44 19.1449 40.5057 18.9553 39.6005C18.4885 37.3376 18.0072 35.0017 17.4675 32.6512C18.897 29.4831 18.9407 25.6581 17.803 22.4024C19.5679 24.6945 21.3766 26.972 22.9228 29.4247ZM9.99934 8.19723C10.8016 10.6937 11.9393 13.1026 13.1646 15.4093C14.4336 17.8036 15.9943 19.9789 17.628 22.125C17.6134 22.1396 17.5988 22.1396 17.5988 22.1688C18.2114 25.6289 18.0364 28.6802 17.3362 31.9942C16.5632 28.7094 15.6151 25.4391 14.346 22.3586C14.6815 21.2053 14.8128 19.9789 14.6086 18.811C14.594 18.7088 14.4482 18.7526 14.4482 18.8256C14.3898 19.8475 14.2877 20.8111 14.0981 21.7746C13.7626 20.9863 13.3979 20.2271 13.0187 19.4679C11.6476 14.5042 10.1014 9.58417 8.78869 4.60578C8.83244 4.56198 8.8762 4.51819 8.91996 4.47439C9.21169 5.72993 9.60552 6.97088 9.99934 8.19723ZM8.30734 7.17527C8.29275 6.5767 8.30734 5.96352 8.29275 5.36495C8.29275 5.35035 8.26358 5.33575 8.26358 5.32115C8.3511 5.13136 8.48237 4.94157 8.62824 4.76637C9.22627 9.27758 10.3786 14.1538 12.1727 18.446C12.1289 18.4898 12.0998 18.5628 12.1144 18.6358C12.3477 19.7745 12.6103 20.8987 12.902 22.0228C12.6832 21.6725 12.4644 21.3221 12.2456 20.9863C11.7789 20.2563 11.385 19.4533 10.8308 18.7818C10.7578 18.7088 10.6266 18.7818 10.6557 18.884C11.0933 20.2417 12.0852 21.6433 13.0916 22.7674C13.9668 26.0377 15.017 29.2933 16.0526 32.5344C15.0024 31.5854 14.0106 30.6657 13.1646 29.4539C12.1581 28.0378 11.5455 26.4027 11.0058 24.7675C10.9766 24.6799 10.8599 24.7237 10.8745 24.8113C11.3267 27.9794 13.4125 31.4248 16.2277 33.0892C16.9278 35.3229 17.5988 37.5566 18.1676 39.8049C18.5031 41.1334 18.7657 42.4766 18.9991 43.8343C17.2341 42.8416 15.5713 41.7612 14.0397 40.4035C13.3542 39.8049 12.7561 39.1333 12.1873 38.4471C12.3769 35.1915 11.8372 31.819 11.633 28.5634C11.633 28.4758 11.5017 28.4758 11.5017 28.5634C11.5892 31.6584 11.3996 34.8995 11.7935 37.98C11.3121 37.396 10.8453 36.7974 10.3494 36.2134C10.4661 35.0601 10.5099 33.9067 10.5974 32.768C10.7432 30.6511 11.0787 28.4466 10.8162 26.3297C10.7724 26.3297 10.7724 26.3297 10.7724 26.3297C10.2765 28.1108 10.2473 30.0087 10.116 31.8628C10.0869 32.33 10.0431 32.7972 9.99934 33.279C10.6266 24.5923 10.6411 15.2195 8.30734 7.17527ZM11.9247 54.6525C11.5892 54.2583 11.2975 53.8641 11.0204 53.4553C11.0787 53.5137 11.1225 53.5867 11.1808 53.6451C11.2392 53.7035 11.3121 53.6597 11.3267 53.6013C11.7935 54.3459 12.3623 55.0904 12.9749 55.8058C12.6249 55.4262 12.2602 55.0466 11.9247 54.6525ZM13.2229 82.6249C10.9183 85.6907 8.8762 88.9902 6.71744 92.1582C5.60888 93.7934 4.50033 95.4431 3.39177 97.0928C2.56035 98.3338 1.99149 98.6404 1.52473 98.8156C3.85853 96.4505 5.56512 93.297 7.46134 90.6107C9.88265 87.1653 12.2456 83.6906 14.5794 80.1868C15.3671 79.0042 16.3881 77.6465 17.3946 76.2011C17.4529 76.2303 17.5259 76.2303 17.5842 76.1719C17.628 76.1281 17.6717 76.0697 17.7155 76.0259C17.7592 76.0843 17.803 76.1281 17.8759 76.1573C17.8905 76.2303 17.9051 76.2887 17.9634 76.3471C17.5259 76.9311 17.0445 77.5005 16.4902 78.0553C16.1693 78.4348 16.6798 78.975 17.0591 78.61C17.2779 78.4056 17.4967 78.1866 17.7155 77.9531C17.7446 77.9531 17.7592 77.9531 17.7884 77.9385C18.0218 77.8071 18.2406 77.6903 18.474 77.5589C16.4611 78.9312 14.6961 80.6685 13.2229 82.6249ZM25.8254 75.3106C25.8984 75.3544 25.9713 75.3836 26.0442 75.4274C25.9275 75.4128 25.7963 75.3982 25.6796 75.3836C25.7233 75.3544 25.7817 75.3252 25.8254 75.3106ZM41.4911 78.8582C41.564 78.7998 41.5786 78.6976 41.4765 78.6684C41.0389 78.5662 40.6013 78.4786 40.1637 78.3764C40.2221 78.3764 40.2804 78.391 40.3242 78.391C40.4554 78.391 40.4846 78.2012 40.3533 78.1574C37.9466 77.4713 35.5545 76.9165 33.1623 76.1865C31.4266 74.8726 29.5012 73.7776 27.6633 72.6243C27.9696 72.4637 28.2759 72.3177 28.5822 72.1571C29.3261 72.4783 30.0263 72.8433 30.6972 73.2813C31.2369 73.6316 31.7037 74.055 32.185 74.4638C32.1705 74.4638 32.1413 74.4492 32.1267 74.4492C31.9954 74.42 31.9662 74.5952 32.0683 74.639C32.2871 74.7266 32.4914 74.8142 32.7101 74.9018C32.7393 74.931 32.7831 74.9602 32.8122 74.9894C32.8414 75.004 32.8706 75.004 32.8852 74.9748C35.1169 75.8361 37.3048 76.7851 39.5219 77.6757C39.6386 77.7195 39.697 77.5443 39.6094 77.4713C39.1135 77.1501 38.5884 76.8581 38.0487 76.5807C39.1719 76.9749 40.295 77.3399 41.4327 77.5881C41.5202 77.6027 41.564 77.5151 41.5202 77.4421C42.235 77.6319 42.9497 77.7925 43.679 77.9093C43.7811 77.9239 43.8249 77.7925 43.7228 77.7633C43.504 77.6903 43.2852 77.6173 43.0664 77.5443C44.0291 77.7049 44.9772 77.8363 45.9399 77.9385C46.0128 77.9385 46.0274 77.8217 45.9545 77.7925C45.7648 77.7487 45.5606 77.7195 45.371 77.6903C49.5719 77.4129 53.8019 76.5953 57.8568 75.4712C57.8568 75.5004 57.886 75.5296 57.9152 75.5296C60.9783 75.2522 64.0414 74.201 66.8274 72.9601C66.8857 72.9309 66.842 72.8433 66.7836 72.8579C63.9685 73.763 61.095 74.4346 58.2653 75.2814L58.2507 75.2668C58.1486 75.2814 58.0465 75.296 57.9444 75.3252C59.9573 74.785 61.9848 73.8798 63.8664 73.0039C63.9247 72.9747 63.881 72.9017 63.8226 72.9163C61.7076 73.5294 59.4322 74.2448 57.4776 75.2668C57.4047 75.3106 57.4338 75.3836 57.4922 75.4128C54.1374 76.0405 50.7679 76.5953 47.4131 77.1793C44.2916 77.0333 41.4181 76.5807 38.4717 75.5296C35.7587 74.5514 33.4978 72.6681 30.741 71.8213C30.6097 71.7045 30.4493 71.5877 30.318 71.4709C30.2742 71.4271 30.2159 71.4855 30.2451 71.5293C30.3034 71.6023 30.3763 71.6607 30.4347 71.7191C30.3763 71.7045 30.318 71.6753 30.2451 71.6607C29.9971 71.6023 29.9242 71.9381 30.143 72.0257C30.493 72.1717 30.8431 72.3323 31.1932 72.4783C31.9079 73.1353 32.6956 73.7338 33.5853 74.1572C33.6583 74.1864 33.7166 74.0988 33.6437 74.0404C33.0602 73.6316 32.4768 73.2229 31.9225 72.7995C36.5609 74.931 40.6013 77.3399 45.7794 77.4275C45.5752 77.4567 45.371 77.5005 45.1522 77.5297C45.1085 77.5443 45.0939 77.5735 45.0939 77.6173C43.8978 77.3691 42.6871 77.1793 41.4619 77.0041C39.9303 76.4785 38.3988 75.9237 36.8818 75.3252C36.7943 75.2814 36.736 75.442 36.8089 75.4858C36.911 75.5442 37.0423 75.6026 37.1444 75.661C35.8462 75.2376 34.5334 74.8726 33.279 74.5076C32.1413 73.4418 30.7556 72.5659 29.472 71.6753C30.2597 71.2957 31.0619 70.9308 31.8641 70.5804C31.835 70.6096 31.8058 70.6388 31.7766 70.668C31.7183 70.7264 31.7912 70.814 31.8641 70.7848C32.2434 70.5804 32.608 70.3614 32.9581 70.1132C33.8479 69.7336 34.7522 69.3686 35.6712 69.0328C37.1006 70.23 38.5884 71.5001 40.1929 72.4053C40.2804 72.4491 40.3533 72.3469 40.295 72.2739C39.0552 71.0038 37.4944 69.9234 36.0212 68.8868C36.5609 68.6971 37.1006 68.5073 37.6257 68.3321C38.6176 69.427 39.697 70.5074 40.9076 71.3103C40.9806 71.3687 41.0681 71.2519 41.0097 71.1789C40.0179 70.157 38.9385 69.2226 37.9029 68.2445C38.2383 68.1277 38.5738 68.0255 38.9239 67.9087C39.8282 68.6824 40.7326 69.4708 41.7244 70.1132C41.812 70.1716 41.8995 70.0402 41.8411 69.9672C41.0827 69.1642 40.2221 68.4635 39.3469 67.7773C39.6532 67.6751 39.9595 67.5875 40.2658 67.4999C40.8784 68.1131 41.5202 68.7116 42.1766 69.2372C42.2496 69.2956 42.3225 69.208 42.2787 69.135C41.7536 68.5219 41.1702 67.9525 40.5867 67.3831C40.8201 67.3101 41.0389 67.2517 41.2723 67.1933C41.6515 67.6605 42.0453 68.1423 42.4829 68.5657C42.5121 68.5949 42.5705 68.5511 42.5413 68.5219C42.2058 68.0547 41.812 67.6021 41.4181 67.1641C41.5786 67.1203 41.7536 67.0765 41.9141 67.0327C42.7601 67.0473 43.5331 67.4415 43.9999 68.1569C43.5623 67.4415 42.8184 67.0473 42.0016 67.0035C43.8395 66.5071 45.6919 66.0838 47.559 65.7188C48.8425 66.7115 50.1115 67.7043 51.4827 68.5511C51.5556 68.5949 51.6431 68.4927 51.5702 68.4343C50.447 67.4123 49.2218 66.5217 47.9965 65.6312C48.2883 65.5728 48.5946 65.529 48.8863 65.4706C49.1926 65.7042 49.4843 65.9524 49.8052 66.186C50.3595 66.5947 50.8992 67.0911 51.5118 67.4123C51.6285 67.4707 51.7744 67.3101 51.6577 67.2225C51.4535 67.0473 51.2639 66.8575 51.0597 66.6823C51.0451 66.6677 51.0159 66.6677 51.0013 66.6823C50.7825 66.5217 50.5491 66.3612 50.3303 66.2006C49.9657 65.9378 49.601 65.675 49.2218 65.4268C49.5281 65.3684 49.8344 65.3246 50.1407 65.2662C50.7825 65.821 51.4243 66.3904 52.139 66.8721C52.3141 66.9889 52.4599 66.7407 52.3432 66.5947C52.1828 66.3904 52.0369 66.1422 51.9057 65.9232C51.8765 65.8794 51.8036 65.9086 51.8181 65.967C51.8473 66.0546 51.8765 66.1422 51.9057 66.2298C51.4827 65.8648 51.0451 65.529 50.5929 65.1932C50.7388 65.164 50.87 65.1494 51.0159 65.1348C51.2784 65.2662 51.5556 65.383 51.8181 65.5144C52.1974 65.7042 52.5766 65.9378 52.9996 65.9962C53.0726 66.0108 53.1163 65.894 53.058 65.8356C52.7954 65.5874 52.4453 65.4852 52.1099 65.3392C51.8911 65.2516 51.6869 65.1494 51.4681 65.0618C51.8181 65.0034 52.1682 64.9596 52.5329 64.9158C53.0871 65.5144 53.7435 66.0546 54.4874 66.3174C54.5604 66.3465 54.5895 66.2444 54.5312 66.2006C53.9623 65.7626 53.3789 65.3538 52.8684 64.872C53.0726 64.8428 53.2768 64.8136 53.481 64.7844C53.8894 65.2224 54.2978 65.675 54.7792 65.9962C54.8229 66.0254 54.8958 65.967 54.8521 65.9232C54.5458 65.4852 54.1082 65.1202 53.6852 64.7698C53.904 64.7406 54.1228 64.726 54.3561 64.6968C54.7937 65.1348 55.3334 65.5144 55.9315 65.6458C55.9898 65.6604 56.019 65.5874 55.9752 65.5582C55.4501 65.2954 54.9688 65.0472 54.5312 64.6822C54.7646 64.653 54.9979 64.6238 55.2313 64.6092C55.2459 64.6968 55.348 64.7406 55.4501 64.726C55.7418 65.0034 56.0336 65.2954 56.3399 65.5728C56.3691 65.602 56.4128 65.5582 56.3836 65.529C56.1211 65.237 55.8439 64.9596 55.5668 64.6676C55.6106 64.6238 55.6543 64.5946 55.6981 64.5508C55.7564 64.5508 55.8002 64.5362 55.8585 64.5362C57.3755 64.3902 58.8925 64.3026 60.3949 64.2734C61.0804 64.7698 61.766 65.2662 62.4223 65.8064C63.1662 66.4487 63.7935 67.2079 64.5228 67.8503C64.5811 67.8941 64.6686 67.8357 64.6249 67.7627C63.7643 66.332 62.189 65.1056 60.7012 64.2588C61.1242 64.2442 61.5326 64.2588 61.9556 64.2442C61.8827 64.288 61.8389 64.3756 61.9264 64.4486C62.4515 64.9158 62.9766 65.383 63.5017 65.8502C63.9685 66.259 64.4207 66.7553 64.9604 67.0765C65.0333 67.1203 65.15 67.0327 65.0916 66.9451C64.7124 66.4487 64.1727 66.0546 63.7059 65.6458C63.1808 65.1786 62.6557 64.7114 62.1306 64.2442H62.116C62.4078 64.2442 62.6995 64.2442 62.9766 64.2442C63.9539 65.2224 64.9458 66.2882 66.0835 67.0619C66.1418 67.1057 66.2002 67.0181 66.1564 66.9597C65.3396 65.9524 64.2748 65.091 63.2684 64.2588C64.3915 64.2734 65.5146 64.3026 66.6232 64.3464C66.8128 64.5508 67.0024 64.7406 67.2066 64.945C67.1629 64.9596 67.1045 64.9596 67.0608 64.9596C66.9441 64.9888 66.9733 65.164 67.09 65.1494C67.2066 65.1348 67.3087 65.1494 67.4254 65.1494C67.688 65.4414 67.9651 65.7772 68.3006 65.967C68.359 65.9962 68.4173 65.9378 68.3881 65.8648C68.3735 65.8502 68.359 65.8356 68.3444 65.821C68.8986 66.1276 69.4237 66.4633 69.9197 66.8721C70.5469 67.3831 70.9991 68.0839 71.6117 68.5949C71.6846 68.6533 71.7721 68.5803 71.743 68.5073C71.6554 68.3029 71.5242 68.0985 71.3929 67.9087C71.5679 68.0547 71.743 68.1861 71.9034 68.3467C72.0493 68.4927 72.2827 68.2591 72.1222 68.1277C71.5096 67.6167 70.8824 67.1057 70.2552 66.6093C69.9343 66.2006 69.555 65.8064 69.1758 65.4414C69.2487 65.4706 69.3216 65.4852 69.3946 65.5144C69.3654 65.5436 69.3508 65.5874 69.38 65.6166C70.3427 66.3757 71.2908 67.2225 72.2972 67.9379C72.4285 68.0547 72.5598 68.1715 72.6911 68.2737C72.7348 68.3029 72.764 68.2737 72.764 68.2299C72.9099 68.3321 73.0557 68.4343 73.2016 68.5219C73.2162 68.5365 73.2308 68.5219 73.2599 68.5073C73.4787 68.6533 73.6829 68.8139 73.9163 68.9452C73.9747 68.989 74.0476 68.9014 73.9893 68.843C72.9536 67.8649 71.8013 66.9889 70.6198 66.1422C70.5907 66.113 70.5615 66.0838 70.5177 66.0546C72.8515 67.4415 74.7186 69.8942 77.4754 70.1424C77.1982 70.2738 76.9357 70.4198 76.6585 70.5512C74.9519 71.2373 73.2599 71.9673 71.67 72.8141C71.5971 72.7995 71.5242 72.7995 71.4658 72.7849C73.1432 72.0111 74.7623 71.1206 76.2793 70.2008C76.3376 70.157 76.2793 70.084 76.2209 70.0986C74.1935 71.0183 72.1368 71.8067 70.0655 72.5951C66.9295 72.1279 64.2602 71.3541 61.9848 68.5949C60.5407 66.8575 58.5424 65.6604 56.3545 65.164C56.3107 65.1494 56.2961 65.2078 56.3253 65.2224C58.0465 66.04 59.5926 66.9159 61.0221 68.2299C61.941 69.0766 62.5245 70.3906 63.5892 71.0768C65.1937 72.1133 67.0754 72.7119 68.9862 72.9893C67.2358 73.6462 65.5 74.2886 63.7643 75.004C63.6476 75.0478 63.6476 75.1792 63.7205 75.2376C61.8535 75.9821 59.9719 76.4347 57.9881 76.8727C58.0611 76.8289 58.1486 76.7851 58.2215 76.7267C58.3382 76.6537 58.2653 76.4347 58.1194 76.4931C57.0254 76.9019 55.9315 77.2523 54.7937 77.5297C54.1957 77.6757 53.5539 77.6903 52.9267 77.7779C53.058 77.7487 53.1747 77.7195 53.3059 77.7049C54.7354 77.4275 56.1357 77.0479 57.4922 76.4931C57.5068 76.4931 57.5068 76.4785 57.5214 76.4639C60.6574 75.6026 63.7351 74.4492 66.7836 73.3397C66.8274 73.3251 66.8128 73.2521 66.7691 73.2667C63.6913 74.1718 60.5699 75.0624 57.5651 76.2011C57.5214 76.1573 57.4776 76.1281 57.4047 76.1427C56.8942 76.2449 56.3982 76.3617 55.9023 76.4639C56.4274 76.2887 56.9525 76.1281 57.4484 75.9383C57.5359 75.9091 57.5068 75.7777 57.4047 75.8069C53.9331 76.5953 50.4324 77.1063 46.9463 77.8071C46.6984 77.8509 46.7567 78.245 47.0047 78.2304C47.9674 78.2012 48.9301 78.0845 49.8927 77.9385C49.9073 77.9531 49.9073 77.9969 49.9365 77.9969C50.7096 78.1866 51.541 78.0553 52.3432 77.8801C52.139 77.9385 51.9348 77.9969 51.7452 78.1136C51.7014 78.1283 51.7014 78.1721 51.6869 78.2158C48.332 78.6976 44.8751 78.902 41.4911 78.8582ZM68.8549 64.9596C68.8111 64.9304 68.7674 64.9012 68.7236 64.872C68.6798 64.8428 68.6361 64.9012 68.6653 64.9304C68.6361 64.9304 68.6069 64.9304 68.5777 64.9304C68.4173 64.7698 68.2423 64.6238 68.0818 64.4632C68.6069 64.4924 69.132 64.507 69.6571 64.5362C70.2114 65.0034 70.7803 65.4706 71.3345 65.9378C70.5615 65.456 69.7446 65.091 68.8549 64.9596ZM70.7219 64.5946C70.7803 64.6384 70.824 64.6822 70.8824 64.726C70.897 64.7406 70.897 64.7406 70.9115 64.7552C70.8094 64.6968 70.7073 64.653 70.6052 64.5946C70.6344 64.5946 70.6782 64.5946 70.7219 64.5946ZM67.5713 64.434C67.513 64.5362 67.6151 64.653 67.7026 64.5654C67.7463 64.5216 67.8047 64.4924 67.8484 64.4486C67.8776 64.4486 67.9068 64.4486 67.936 64.4486C67.9214 64.4778 67.9068 64.507 67.936 64.5216C68.0526 64.653 68.1693 64.7698 68.286 64.9012C68.111 64.9012 67.936 64.9012 67.7609 64.9158C67.5421 64.799 67.3233 64.6822 67.1191 64.58C67.0608 64.5216 67.0024 64.4632 66.9441 64.4048C67.1483 64.4194 67.3525 64.434 67.5713 64.434ZM67.7901 65.2224C67.8484 65.2224 67.9214 65.2224 67.9797 65.2224C68.0964 65.31 68.2277 65.3684 68.3444 65.456C68.534 65.602 68.709 65.7772 68.8841 65.9378C68.6215 65.7918 68.359 65.6604 68.111 65.5582C68.0089 65.4414 67.9068 65.3392 67.7901 65.2224ZM67.513 64.9596C67.4838 64.9304 67.44 64.8866 67.4109 64.8574C67.4546 64.8866 67.5129 64.9158 67.5567 64.9596C67.5421 64.9596 67.5275 64.9596 67.513 64.9596ZM68.6653 65.3538C68.6799 65.3538 68.6799 65.3538 68.6944 65.3538C68.7236 65.383 68.7382 65.3976 68.7674 65.4268C68.7382 65.3976 68.709 65.3684 68.6653 65.3538ZM66.7982 75.661C67.5129 75.2376 68.2714 74.8872 69.0591 74.5952C68.6653 74.7704 68.2714 74.9456 67.8922 75.15C67.7901 75.2084 67.7901 75.3106 67.8338 75.3836C67.8047 75.3982 67.7755 75.4128 67.7463 75.4274C67.4254 75.5004 67.1045 75.588 66.7982 75.661ZM65.0916 76.0697C65.077 76.0697 65.077 76.0551 65.077 76.0551C64.8874 76.0405 64.9166 76.0405 64.7416 76.1281C64.727 76.1281 64.727 76.1573 64.727 76.1573C64.0998 76.3033 63.4726 76.4201 62.8308 76.5515C64.479 75.807 66.1273 75.077 67.7755 74.3616C68.7528 74.0404 69.7301 73.6608 70.6782 73.2375C70.8824 73.2521 71.0866 73.2667 71.2762 73.2667C70.897 73.4273 70.5177 73.5586 70.1531 73.7192C69.9926 73.7922 70.0655 73.9674 70.1968 74.0258C69.4675 74.201 68.7528 74.4054 68.0672 74.712C67.5421 74.9456 67.0316 75.1938 66.5357 75.4566C66.4773 75.4858 66.1418 75.6902 65.7772 75.8945C65.5584 75.9675 65.325 76.0259 65.0916 76.0697ZM61.8972 76.7559C61.9556 76.7267 62.0285 76.6975 62.0869 76.6829C62.0577 76.7121 62.0139 76.7267 61.9848 76.7413C61.9556 76.7413 61.9264 76.7559 61.8972 76.7559ZM57.0254 77.6173C57.0546 77.6027 57.0984 77.5881 57.1275 77.5589C57.1567 77.5443 57.1567 77.5005 57.1567 77.4713C57.288 77.4129 57.4047 77.3399 57.5214 77.2815C59.8552 77.1501 62.2036 76.3179 64.3331 75.2668C64.5082 75.2376 64.6686 75.1938 64.8437 75.1646C64.6103 75.2668 64.3769 75.3836 64.1435 75.5004C63.0204 75.9821 61.8972 76.4639 60.7887 76.9603C59.5634 77.1939 58.309 77.4129 57.0254 77.6173ZM73.6246 73.5732C74.7769 73.0769 75.9146 72.5513 77.0086 72.0549C77.0815 72.0257 77.0232 71.8943 76.9503 71.9235C76.8482 71.9527 76.7315 71.9819 76.6148 72.0111C78.1901 71.2373 79.7216 70.376 81.1657 69.5292C81.2532 69.4854 81.1949 69.3394 81.1073 69.3686C80.9031 69.4416 80.6989 69.5146 80.4947 69.5876C81.3407 69.1788 82.1867 68.7846 83.0327 68.3905C83.0911 68.3613 83.0473 68.2737 82.989 68.2883C82.493 68.4635 81.9971 68.6533 81.5012 68.8284C82.0409 68.4489 82.5806 68.0693 83.0911 67.6897C83.2078 67.6021 83.1057 67.4123 82.9744 67.4853C81.3699 68.3175 79.7071 69.1204 78.0588 69.938C76.4543 69.6898 75.0978 68.7262 73.785 67.7043C73.7996 67.6751 73.7996 67.6459 73.785 67.6313C72.8078 66.7261 71.7721 65.894 70.7365 65.0618C70.9991 65.2516 71.2762 65.4268 71.5388 65.6166C71.7721 65.7918 71.9909 65.9816 72.2243 66.1714C72.2972 66.2444 72.3556 66.332 72.4285 66.405C72.4723 66.4487 72.5306 66.4633 72.5744 66.4487C72.764 66.5947 72.939 66.7407 73.1287 66.8575C73.2308 66.9159 73.362 66.7991 73.2891 66.6969C73.2453 66.6239 73.1724 66.5655 73.1141 66.5071C73.2745 66.6093 73.4204 66.6969 73.5808 66.7553C73.6975 66.7991 73.7996 66.6823 73.7121 66.5801C73.3329 66.0984 72.7494 65.7334 72.2535 65.3684C71.9034 65.1056 71.5388 64.8574 71.1887 64.6092C72.3118 64.6676 73.4204 64.726 74.5435 64.7844C76.7315 64.8866 78.9194 64.8866 81.0636 64.653C81.3115 65.0034 81.5887 65.3392 81.9096 65.675C81.895 65.6896 81.8804 65.6896 81.8658 65.7042C81.8075 65.7772 81.8658 65.8794 81.9533 65.8502C81.9825 65.8502 82.0117 65.821 82.0409 65.821C82.566 66.3612 83.164 66.8429 83.8204 67.1787C83.6745 67.3101 83.5141 67.4123 83.3828 67.5437C83.339 67.5875 83.3974 67.6605 83.4557 67.6313C83.6308 67.5145 83.8058 67.3685 83.9808 67.2371C84.1121 67.3101 84.258 67.3539 84.4038 67.4123C84.3163 67.4707 84.2434 67.5291 84.1559 67.5875C84.0975 67.6313 84.1413 67.7043 84.2142 67.6751C84.3455 67.6167 84.4622 67.5437 84.5935 67.4707C84.7685 67.5291 84.9581 67.5729 85.1331 67.6021C84.2288 68.2445 83.3099 68.8576 82.3618 69.427C79.5758 71.1351 76.6439 72.4637 73.6246 73.5732ZM87.5399 63.2661C87.394 63.3829 84.5351 65.529 84.5059 65.2078C84.5059 65.1494 84.4184 65.1202 84.4038 65.1932C84.3892 65.2662 84.3747 65.3246 84.3601 65.3976C84.3601 65.4268 84.3601 65.4706 84.4038 65.4998C85.1186 65.8648 85.9646 65.3246 86.6939 64.6968C86.548 64.8574 86.4167 65.018 86.2855 65.1932C85.5999 65.7188 84.9581 66.2736 84.3017 66.8283C83.9517 66.6385 83.587 66.4487 83.2661 66.2298C83.0181 66.0692 82.7993 65.8648 82.566 65.675C83.1057 65.4122 83.6162 65.018 84.1121 64.6968C84.258 64.6092 84.3892 64.5216 84.5351 64.434C84.2434 64.6822 83.9371 64.9304 83.6745 65.2078C83.6308 65.2516 83.6745 65.31 83.7183 65.2954C84.1267 65.2224 84.5643 64.7114 84.856 64.4632C85.1477 64.215 85.454 63.9523 85.7312 63.6895C85.7895 63.6457 85.8479 63.6165 85.9062 63.5727C87.0148 63.1785 88.0796 62.6529 89.1006 62.0105C88.5901 62.4193 88.065 62.8573 87.5399 63.2661ZM83.9517 64.434C83.3974 64.7406 82.7556 65.0034 82.2305 65.3976C81.9533 65.1494 81.7054 64.872 81.4574 64.6092C82.6389 64.4632 83.8058 64.2296 84.9435 63.8939C84.6226 64.069 84.2871 64.2588 83.9517 64.434ZM85.2498 67.3685C85.1915 67.3247 85.1186 67.2955 85.0456 67.2517C86.5043 66.4633 87.8754 65.4998 89.1444 64.3902C87.9337 65.4998 86.6501 66.5363 85.3082 67.4999C85.3228 67.4561 85.3082 67.4123 85.2498 67.3685ZM94.1329 58.7987C93.8849 59.1491 93.6078 59.4848 93.3452 59.8206C93.316 59.7622 93.2285 59.7184 93.1702 59.7914C90.6905 62.6821 87.8899 64.945 84.8268 67.1349C84.6956 67.0619 84.5789 66.9889 84.4476 66.9159C85.0456 66.478 85.6437 66.04 86.2271 65.5874C87.5253 64.872 88.5755 63.6603 89.6695 62.6675C90.8947 61.5434 92.2512 60.4484 93.2723 59.1491C93.316 59.0907 93.2577 58.9885 93.1848 59.0323C93.0389 59.1199 92.893 59.2367 92.7472 59.3388C93.0535 59.0323 93.3598 58.7257 93.6515 58.3899C93.7828 58.2439 93.5786 58.0395 93.4327 58.1709C92.3533 59.0907 91.3031 60.0688 90.2383 61.0032C90.1946 60.8864 90.0779 60.7988 89.932 60.8864C87.2044 62.4047 84.3309 63.1639 81.3991 63.4997C82.1867 62.9157 82.989 62.3463 83.8496 61.8353C85.0456 61.12 86.4022 60.5944 87.5253 59.7914C87.642 59.7038 87.569 59.5286 87.4232 59.5578C85.031 60.0834 82.6535 61.9083 80.7135 63.6019C77.5191 63.9085 74.2518 63.7333 70.9699 63.5143C70.3864 63.4705 69.803 63.4413 69.2195 63.4121C71.4804 61.7477 73.7413 60.5652 76.6148 59.7622C76.7023 59.733 76.6877 59.5724 76.5856 59.587C73.6975 59.8936 70.649 61.266 68.534 63.3683C64.7416 63.1639 60.9637 63.1493 57.1859 63.3975C58.4111 62.3463 59.6218 61.3244 60.9637 60.4046C62.7287 59.2075 64.6686 58.4483 66.5211 57.4263C66.6669 57.3387 66.5648 57.1197 66.4044 57.1489C62.7724 57.9957 58.7758 60.536 56.1794 63.4705C54.75 63.5873 53.3205 63.7479 51.9057 63.9523C51.7452 63.9815 51.5993 63.9961 51.4389 64.0252C51.6139 63.6895 51.789 63.3683 51.964 63.0325C52.0078 62.9449 51.8911 62.8573 51.8327 62.9303C51.7598 63.0033 51.7015 63.0909 51.6285 63.1639C52.0224 62.2003 52.5183 61.2806 53.1455 60.4484C53.2476 60.317 53.0288 60.1418 52.9121 60.2732C52.8829 60.3024 52.8683 60.3316 52.8392 60.3462C52.7808 60.244 52.6641 60.1856 52.5475 60.2878C51.7598 61.0762 50.7533 62.0835 50.3012 63.1931C50.0824 63.4705 49.8344 63.7187 49.5719 63.9377C50.6367 62.1857 51.7598 60.4922 52.9996 58.8571C53.0288 58.8133 52.9705 58.7695 52.9413 58.7987C54.1374 58.1125 55.4064 57.5431 56.6608 56.9008C56.6608 56.93 56.6462 56.9446 56.6316 56.9738C56.617 57.0322 56.7045 57.0759 56.7337 57.0175C57.0546 56.4774 57.3463 55.9372 57.6526 55.4262C57.7402 55.3532 57.8277 55.2802 57.9152 55.2218C57.959 55.178 57.9006 55.0904 57.8568 55.1342C57.9735 54.959 58.1048 54.7692 58.2361 54.6087C58.6007 54.6233 58.9508 54.6379 59.3155 54.6525C58.557 55.2948 57.7693 56.0978 57.5214 57.0322C57.5068 57.076 57.5651 57.1197 57.5943 57.0759C57.9298 56.6818 58.1923 56.2146 58.4986 55.7912C58.7904 55.3824 59.1404 55.0028 59.5051 54.6525C59.8114 54.667 60.1177 54.6816 60.424 54.6962C59.4759 55.5284 58.6591 56.5212 58.0465 57.6307C57.959 57.7913 58.1632 57.9519 58.2944 57.8351C58.6299 57.5285 58.98 57.2511 59.3155 56.9446C59.3592 56.9008 59.3009 56.8278 59.2571 56.857C59.0675 56.9738 58.8779 57.0905 58.7029 57.2073C59.228 56.346 59.8114 55.5284 60.5553 54.8276C60.5991 54.7838 60.5845 54.74 60.5553 54.7108C60.8179 54.7254 61.0804 54.7546 61.3575 54.7838C60.4824 55.3678 59.6655 56.346 59.7968 57.3533C59.8114 57.4263 59.9135 57.4701 59.9573 57.3971C60.2344 56.9154 60.3657 56.3752 60.6574 55.8788C60.92 55.4408 61.2992 55.105 61.7076 54.813C62.1598 54.8568 62.612 54.886 63.0641 54.9298C62.3057 55.7182 61.5472 56.5358 60.847 57.3533C60.6866 57.5285 60.92 57.7621 61.1096 57.6161C61.3867 57.3971 61.693 57.1927 61.9848 56.9883C62.0431 56.9445 61.9993 56.8716 61.9264 56.8862C61.8389 56.93 61.7514 56.9592 61.6784 56.9883C62.2765 56.346 62.8453 55.6744 63.3705 54.9736C63.5309 54.9882 63.6768 55.0174 63.8372 55.032C63.035 55.8788 62.2036 56.7256 61.5472 57.7037C61.4742 57.8059 61.6201 57.8935 61.7076 57.8205C62.6557 57.0175 63.458 56.0248 64.2602 55.0904C68.4756 55.6306 72.6473 56.5066 76.746 57.4555C82.1867 58.7111 88.24 60.171 93.6078 57.9519C93.7245 57.9081 93.7828 57.8059 93.812 57.7183C94.658 57.4847 95.0518 57.4263 94.1329 58.7987Z" fill="#194A33"></path><path d="M40.7472 49.2069C41.812 48.4331 42.6288 47.2214 43.3873 46.1702C43.504 46.0096 43.256 45.8344 43.1247 45.9658C42.2496 46.8856 41.1993 47.9367 40.6451 49.1047C40.6305 49.1777 40.6888 49.2507 40.7472 49.2069Z" fill="#194A33"></path><path d="M49.2947 46.506C48.5362 46.9148 47.7777 47.3236 47.0193 47.7615C46.9172 47.8199 46.8151 47.8637 46.7275 47.9221C47.2381 47.6156 47.7486 47.309 48.2591 47.0316C48.3029 47.0024 48.2591 46.9294 48.2153 46.9586C46.4942 47.7761 44.525 48.4769 42.9789 49.5719C42.8914 49.6449 42.9351 49.8055 43.0664 49.7763C43.9853 49.4551 44.8897 48.9879 45.7794 48.4915C45.5315 48.6521 45.3127 48.8273 45.1085 49.0317C45.0501 49.1047 45.1085 49.2069 45.196 49.1923C45.9399 49.0025 46.5817 48.5207 47.2381 48.1265C47.982 47.6739 48.7113 47.2068 49.4406 46.7396C49.5719 46.652 49.4552 46.433 49.2947 46.506Z" fill="#194A33"></path><path d="M61.8681 38.4033C61.7368 38.4909 61.8097 38.7391 61.9848 38.6807C64.0268 37.9362 65.9522 37.4252 68.0235 37.1186C65.8647 37.6734 63.633 38.1698 61.6055 39.0457C61.4888 39.1041 61.5763 39.2647 61.693 39.2501C64.231 38.8121 66.7253 37.8048 69.1758 37.031C69.1904 37.031 69.1758 37.0018 69.1904 37.0018C69.4092 36.9726 69.628 36.9434 69.8467 36.9288C69.9489 36.9288 69.9926 36.7536 69.8759 36.739C67.1775 36.2864 64.1727 36.885 61.8681 38.4033Z" fill="#194A33"></path><path d="M51.5848 71.1644C52.985 72.1717 54.4728 73.5294 56.2815 72.9893C56.3399 72.9747 56.3107 72.9017 56.2524 72.9163C54.0207 73.3543 52.1682 71.1643 50.5637 69.9672C49.178 68.916 47.8069 67.8503 46.3483 66.9013C46.217 66.8137 46.0712 67.0181 46.1878 67.1057C47.909 68.5365 49.7615 69.8504 51.5848 71.1644Z" fill="#194A33"></path><path d="M49.5864 29.3517C49.5135 29.4539 49.674 29.5561 49.7615 29.4831C50.4324 28.8699 51.0013 28.1692 51.5264 27.4392C51.4972 27.4976 51.5556 27.556 51.6139 27.5122C53.3789 26.0523 55.2022 24.5923 56.7775 22.9426C56.8212 22.8988 56.7629 22.7966 56.7045 22.8404C54.8813 24.1981 53.2184 25.8187 51.5702 27.3808C52.8246 25.5997 53.7144 23.5704 54.7208 21.6433C54.8813 21.3367 55.0417 21.0301 55.2022 20.7089C55.2605 20.7381 55.3334 20.7235 55.3188 20.6505C55.3188 20.5921 55.3188 20.5337 55.3188 20.4753C56.8796 17.4094 58.2944 14.5626 60.4532 11.8033C60.8908 11.8033 61.4888 11.2047 61.7368 11.0149C62.3494 10.5623 63.1517 10.1535 63.6038 9.52577C63.6622 9.45278 63.5747 9.33598 63.4871 9.36518C62.9183 9.56957 62.4515 10.0222 61.9702 10.3871C61.8535 10.4747 61.3138 10.9419 60.8908 11.2047C61.0075 11.0295 60.8908 10.7959 60.7158 10.7959C61.1679 10.3141 61.6055 9.83236 61.9993 9.39438C63.2246 8.06583 64.3186 6.64969 65.15 5.04376C65.1792 4.97077 65.0916 4.89777 65.0333 4.95617C63.8518 6.27011 62.7724 7.67165 61.6055 9.00019C61.2117 9.43818 60.7741 9.86156 60.3365 10.2703C60.7887 8.9126 61.4742 7.71545 62.4078 6.4307C62.4661 6.34311 62.3348 6.25551 62.2765 6.32851C61.0658 7.37966 60.2636 9.01479 59.9281 10.6645C59.1842 11.3507 58.4549 12.0515 57.886 12.8398C57.8131 12.942 57.9444 13.0442 58.0465 13.0004C58.134 12.9566 58.2215 12.8836 58.3236 12.8252C57.113 14.2268 56.2232 15.9057 55.4209 17.6138C55.6543 15.3363 56.2815 13.234 57.2151 10.9565C57.2442 10.8689 57.1129 10.8251 57.0692 10.8981C55.6106 13.088 54.9542 15.8619 54.9979 18.5336C53.2622 22.3148 51.9786 25.9063 49.5864 29.3517Z" fill="#194A33"></path><path d="M25.8838 41.3378C25.9421 41.4838 26.1755 41.4692 26.1755 41.294C26.1609 41.002 26.1317 40.6954 26.1026 40.3889C26.1172 40.4327 26.1317 40.4765 26.1463 40.5349C26.1755 40.637 26.3505 40.6224 26.336 40.5057C26.088 37.6004 24.8919 34.8119 23.5354 32.2716C23.4916 32.184 23.3604 32.257 23.4041 32.3446C23.8563 33.3082 24.2064 34.2863 24.5418 35.2645C24.1043 34.3301 23.6083 33.4542 23.0978 32.6658C23.0832 32.6366 23.0395 32.6512 23.0395 32.6804C23.5062 34.0089 24.0313 35.3083 24.4689 36.6514C24.9794 38.2281 25.2857 39.8341 25.8838 41.3378Z" fill="#194A33"></path><path d="M20.8953 42.0094C20.8515 41.7904 20.5306 41.878 20.5598 42.097C20.6911 42.9729 20.8223 43.8489 20.9536 44.7249C21.0703 45.4548 21.0995 46.3162 21.4787 46.9586C21.5225 47.0462 21.6683 47.0316 21.6975 46.9294C21.8288 46.2724 21.61 45.63 21.4933 44.9731C21.3183 43.9803 21.0995 43.0021 20.8953 42.0094Z" fill="#194A33"></path><path d="M21.6684 41.6298C21.6246 41.5276 21.4641 41.6006 21.4933 41.7028C21.6684 42.4474 21.785 43.1919 21.9163 43.9511C22.0476 44.6957 21.9455 45.5278 22.281 46.214C22.3247 46.3016 22.4706 46.3016 22.5144 46.214C22.7915 45.557 22.6019 44.8125 22.4852 44.1263C22.3539 43.2357 22.033 42.4328 21.6684 41.6298Z" fill="#194A33"></path><path d="M22.5289 42.4182C22.5727 42.9583 22.6165 43.4839 22.6456 44.0241C22.6894 44.5059 22.6602 45.0607 22.9374 45.484C23.0103 45.5862 23.1707 45.5716 23.1999 45.4548C23.3312 45.0315 23.2145 44.6227 23.127 44.1993C23.0103 43.6007 22.879 42.9875 22.7623 42.389C22.7331 42.2576 22.5144 42.2868 22.5289 42.4182Z" fill="#194A33"></path><path d="M23.3166 40.9582C23.5062 41.9802 23.6521 43.0459 24.148 43.9803C24.2355 44.1555 24.5273 44.0825 24.5127 43.8781C24.4835 43.0897 24.2501 42.3306 24.0022 41.6006C24.0605 41.7612 24.1188 41.9218 24.1918 42.0678C24.2209 42.1408 24.2939 42.1116 24.323 42.0678C24.4106 42.316 24.4981 42.5788 24.6002 42.8124C24.6585 42.9291 24.8482 42.8708 24.8336 42.7394C24.5856 40.7246 23.8855 38.6661 23.2145 36.7536C23.1707 36.6222 22.9811 36.6806 23.0103 36.812C23.1124 37.3376 23.2145 37.8924 23.3312 38.4325C23.3166 38.3741 23.2874 38.3011 23.2728 38.2428C23.2145 38.0384 22.879 38.126 22.9519 38.3303C23.1999 39.1333 23.4187 39.9655 23.6958 40.7684C23.5646 40.6078 23.2728 40.71 23.3166 40.9582Z" fill="#194A33"></path><path d="M50.4324 27.4538C50.4616 27.3662 50.4908 27.264 50.52 27.1764C50.5054 27.3954 50.4908 27.6144 50.5054 27.848C50.5345 27.848 50.5345 27.848 50.5345 27.848C51.3076 26.7238 51.3951 25.1325 51.5848 23.804C51.789 22.4024 51.8036 20.9863 51.716 19.5701C51.716 19.5263 51.6431 19.5263 51.6431 19.5701C51.5118 20.7965 51.3514 22.0082 51.1909 23.22C51.1326 23.1908 51.0597 23.2054 51.0451 23.2784C50.7388 24.6215 50.2428 26.0231 50.1991 27.41C50.1845 27.556 50.3887 27.5706 50.4324 27.4538Z" fill="#194A33"></path><path d="M52.635 18.9424C52.6787 18.9132 52.7225 18.8694 52.7662 18.8402C52.81 18.9862 52.9559 19.0884 53.1017 19.0008C53.481 18.7818 53.6852 18.3 53.8748 17.9204C54.1374 17.3802 54.3707 16.8109 54.6479 16.2707C54.7354 16.0955 54.5749 15.9495 54.4291 15.9787C54.5604 15.7451 54.6916 15.4969 54.8083 15.2633C55.0271 14.8545 54.3999 14.4896 54.1811 14.8983C53.831 15.5553 53.481 16.2123 53.1309 16.8693C52.8246 17.4386 52.2703 18.1102 52.3141 18.7672C52.3141 18.9132 52.4891 19.03 52.635 18.9424Z" fill="#194A33"></path><path d="M57.8423 18.7964C57.3026 19.6723 56.7191 20.7819 56.7045 21.833C56.7045 21.9498 56.865 21.9936 56.9233 21.8914C57.3901 20.9425 57.6089 19.8475 57.9881 18.8548C58.0173 18.7818 57.886 18.7234 57.8423 18.7964Z" fill="#194A33"></path><path d="M60.6137 17.4386C60.7303 17.3218 60.5553 17.132 60.424 17.2488C59.5634 18.081 58.4695 19.4242 58.5716 20.6943C58.5716 20.7673 58.6737 20.7965 58.7174 20.7381C59.0092 20.2417 59.1404 19.6869 59.3884 19.1614C59.6801 18.519 60.1177 17.9496 60.6137 17.4386Z" fill="#194A33"></path><path d="M63.9831 9.46737C63.5601 10.7667 63.1079 12.0661 62.5828 13.3508C62.3202 13.9786 62.0285 14.5918 61.7368 15.2049C59.6947 16.2415 57.8131 17.8182 56.0482 19.2636C56.019 19.2928 56.0627 19.3366 56.0919 19.322C57.0838 18.738 58.1194 18.1394 59.1113 17.4824C58.4111 18.6796 57.6526 20.1103 57.5943 21.4973C57.5943 21.5703 57.711 21.5995 57.7402 21.5411C58.382 20.1833 58.732 18.738 59.4905 17.4094C59.5197 17.351 59.5051 17.2926 59.4613 17.2488C60.1907 16.7525 60.8762 16.2269 61.518 15.6575C61.3284 16.0663 61.1533 16.4897 60.9929 16.9131C60.3657 17.9934 59.7093 19.0738 59.1696 20.2125C59.0675 20.4315 59.3738 20.6213 59.5051 20.4023C59.6072 20.2563 59.6947 20.0957 59.7968 19.9497C59.7968 19.9643 59.7822 19.9789 59.7822 19.9935C59.7677 20.0811 59.8698 20.1541 59.9427 20.0811C60.424 19.5847 60.6574 18.8548 60.9637 18.2416C61.2117 17.7014 61.4451 17.1612 61.6784 16.6211C62.8891 14.475 63.7497 11.8179 64.0998 9.51117C64.0998 9.42358 64.0122 9.39438 63.9831 9.46737Z" fill="#194A33"></path><path d="M33.8479 64.3902C33.7895 64.4632 33.9208 64.5654 33.9791 64.4924C35.3648 63.1055 36.736 61.7915 38.3404 60.6528C39.7845 59.6308 41.3744 58.9009 42.9205 58.0541C42.9643 58.0395 42.9351 57.9811 42.8913 57.9811C39.3906 58.8863 35.9629 61.4996 33.8479 64.3902Z" fill="#194A33"></path><path d="M34.5043 62.8427C34.4313 62.9595 34.5918 63.0617 34.6793 62.9741C35.8608 61.9375 36.8818 60.7988 38.1508 59.8644C39.2885 59.0323 40.5575 58.3607 41.8411 57.7767C41.9578 57.7183 41.8849 57.5139 41.7536 57.5577C39.0698 58.5505 36.0796 60.3462 34.5043 62.8427Z" fill="#194A33"></path><path d="M62.2765 71.7921C62.2327 71.8067 62.2036 71.8213 62.1598 71.8505C62.1306 71.7629 62.0431 71.7045 61.941 71.7337C60.5845 72.1425 59.1404 72.4491 57.8568 73.0623C57.7693 73.1061 57.8131 73.2521 57.9006 73.2375C58.6883 73.1353 59.4613 72.9163 60.2344 72.6827C59.155 73.0915 58.0756 73.471 57.0546 73.9966C56.9817 74.0258 57.0108 74.1572 57.0984 74.1572C57.4193 74.128 57.7256 74.0404 58.0465 73.9674C57.5943 74.128 57.1421 74.3032 56.7191 74.5222C56.617 74.566 56.6899 74.712 56.792 74.6974C58.5424 74.42 60.3073 73.6608 61.9993 73.1353C62.189 73.0769 62.116 72.7703 61.9118 72.8287C61.1533 73.0623 60.3511 73.2813 59.5634 73.5002C60.5699 73.0915 61.5618 72.5805 62.4515 72.1279C62.6703 71.9965 62.4807 71.6753 62.2765 71.7921Z" fill="#194A33"></path><path d="M56.7629 74.1572C53.9186 74.9456 51.0159 75.3836 48.1716 76.1135C48.0695 76.1427 48.0841 76.3179 48.2007 76.3033C51.1326 76.1135 54.0352 75.2668 56.8212 74.3762C56.9525 74.3324 56.9087 74.128 56.7629 74.1572Z" fill="#194A33"></path><path d="M54.8958 74.201C52.4016 74.6244 49.7761 75.0478 47.3693 75.8653C47.2526 75.9091 47.2672 76.0989 47.3985 76.0843C49.9219 75.7486 52.4745 74.9894 54.9104 74.2448C54.9542 74.2302 54.9396 74.1864 54.8958 74.201Z" fill="#194A33"></path><path d="M52.9996 73.7046C50.8846 74.055 48.6675 74.493 46.6546 75.223C46.5671 75.2522 46.5671 75.4128 46.6838 75.3982C48.828 75.1354 51.0013 74.5222 53.058 73.8652C53.1601 73.836 53.1017 73.6754 52.9996 73.7046Z" fill="#194A33"></path><path d="M47.0193 74.5222C46.9317 74.566 46.9755 74.712 47.063 74.6974C48.7988 74.4784 50.6804 73.7776 52.2995 73.1353C52.387 73.1061 52.3578 72.9747 52.2557 72.9893C50.5491 73.3251 48.5946 73.7484 47.0193 74.5222Z" fill="#194A33"></path><path d="M52.2995 72.3761C50.695 72.7995 48.9009 73.1207 47.4277 73.8798C47.3256 73.9382 47.3985 74.0696 47.5006 74.055C49.1343 73.8214 50.7971 73.0477 52.3287 72.4783C52.4016 72.4637 52.3724 72.3615 52.2995 72.3761Z" fill="#194A33"></path><path d="M47.0047 73.3543C46.9172 73.3981 46.9609 73.5294 47.0484 73.5294C48.157 73.5003 49.3676 73.0477 50.4179 72.7265C50.52 72.6973 50.4762 72.5513 50.3741 72.5659C49.8198 72.6535 49.2218 72.7411 48.6383 72.8579C48.755 72.7849 48.6821 72.5513 48.5071 72.5805C47.6611 72.7265 46.7275 72.7849 45.9253 73.0769C45.8232 73.1061 45.8378 73.2667 45.9545 73.2667C46.7275 73.2667 47.5152 73.0915 48.2737 72.9455C47.8215 73.0477 47.3985 73.1791 47.0047 73.3543Z" fill="#194A33"></path><path d="M64.7561 68.4489C63.2975 67.0327 61.4888 65.9232 59.8552 64.7406C59.8406 64.7552 59.8406 64.7552 59.8406 64.7552C61.4013 66.04 62.9183 67.5291 64.6395 68.5803C64.727 68.6241 64.8291 68.5073 64.7561 68.4489Z" fill="#194A33"></path><path d="M66.5357 66.7115C66.2877 66.3174 65.8939 65.9962 65.5584 65.675C65.1354 65.2662 64.6978 64.872 64.2456 64.4924C64.1727 64.434 64.0706 64.5216 64.1435 64.5946C64.5082 64.9888 64.8583 65.3684 65.2375 65.748C65.6021 66.113 65.9814 66.5655 66.4336 66.8283C66.5065 66.8429 66.5794 66.7699 66.5357 66.7115Z" fill="#194A33"></path><path d="M67.1775 66.4487C67.2358 66.4779 67.2796 66.4195 67.2358 66.3757C66.6378 65.6312 65.7043 65.091 64.9458 64.5362C64.902 64.507 64.8583 64.5654 64.8874 64.6092C65.6021 65.2224 66.3169 66.0254 67.1775 66.4487Z" fill="#194A33"></path><path d="M66.9733 65.4998C67.3671 65.8356 67.7901 66.259 68.2714 66.4925C68.359 66.5363 68.4173 66.4342 68.3735 66.3757C68.0818 66.0108 67.6442 65.748 67.2796 65.456C66.7982 65.091 66.3169 64.7406 65.8355 64.3902C65.7918 64.3464 65.7188 64.434 65.7772 64.4778C66.1564 64.799 66.5648 65.1494 66.9733 65.4998Z" fill="#194A33"></path><path d="M71.3345 69.0036C71.4221 69.0474 71.5096 68.9452 71.4367 68.8722C70.5177 68.0401 69.5404 67.2955 68.6798 66.3904C68.6361 66.3466 68.5632 66.405 68.6069 66.4633C69.38 67.4123 70.2698 68.3759 71.3345 69.0036Z" fill="#194A33"></path><path d="M53.6268 61.0178C53.3497 61.3682 53.0726 61.7332 52.81 62.0835C52.5475 62.4193 52.1244 62.8135 52.0515 63.2369C52.0223 63.3683 52.1536 63.4705 52.2849 63.4121C52.6496 63.2369 52.8683 62.7697 53.1017 62.4485C53.408 62.0397 53.6998 61.6455 54.0061 61.2368C54.1519 61.0178 53.7873 60.8134 53.6268 61.0178Z" fill="#194A33"></path><path d="M22.9665 53.2217C22.879 52.3457 22.5581 51.4844 22.3539 50.6376C22.3393 50.5938 22.281 50.6084 22.281 50.6522C22.4706 51.499 22.5581 52.4187 22.8498 53.2363C22.879 53.2801 22.9811 53.2801 22.9665 53.2217Z" fill="#194A33"></path></svg>